<?xml version="1.0" encoding="UTF-8" standalone="no"?>
<!DOCTYPE svg PUBLIC "-//W3C//DTD SVG 1.1//EN" "http://www.w3.org/Graphics/SVG/1.1/DTD/svg11.dtd">
<svg width="100%" height="100%" viewBox="0 0 3313 2994" version="1.1" xmlns="http://www.w3.org/2000/svg" xmlns:xlink="http://www.w3.org/1999/xlink" xml:space="preserve" xmlns:serif="http://www.serif.com/" style="fill-rule:evenodd;clip-rule:evenodd;stroke-linecap:round;stroke-linejoin:round;stroke-miterlimit:1.5;">
    <g id="Artboard1" transform="matrix(1,0,0,1,12.1918,7.66764)">
        <rect x="-12.192" y="-7.668" width="3312.62" height="2993.01" style="fill:none;"/>
        <g id="wings" transform="matrix(1,0,0,1,0.80818,0.332361)">
            <g transform="matrix(1,0,0,1,-47.7164,0)">
                <path d="M717.091,1491.88C717.091,1491.88 679.315,1527.67 652.475,1557.49C625.634,1587.32 556.048,1667.84 536.166,1695.67C516.284,1723.51 486.569,1793.03 472.842,1840.81C464.746,1868.99 454.661,1927.09 455.422,1972.07C455.633,1984.53 462.734,2008.37 463.597,2015.27C467.573,2047.08 503.64,2103.44 509.325,2137.55C516.284,2179.3 494.414,2221.05 505.349,2264.79C516.284,2308.53 543.124,2320.46 545.113,2346.31C547.101,2372.15 559.855,2381.21 536.991,2418.99C514.127,2456.77 483.31,2495.53 459.452,2521.38C435.594,2547.23 429.629,2558.16 384.895,2598.92C340.161,2639.68 323.261,2659.56 308.35,2680.44C293.438,2701.31 265.603,2746.05 262.621,2765.93C259.639,2785.81 261.627,2806.69 274.55,2818.62C287.474,2830.55 326.243,2846.45 366.007,2809.67C405.771,2772.89 448.517,2719.21 474.363,2695.35C500.21,2671.49 541.962,2627.75 596.637,2622.78C651.312,2617.81 700.619,2624.58 783.527,2617.81C832.237,2613.83 885.918,2597.93 936.617,2581.03C987.316,2564.13 1027.08,2550.21 1086.72,2503.49C1146.37,2456.77 1162.28,2437.88 1195.08,2393.14C1227.89,2348.41 1262.68,2301.69 1295.49,2240.05C1328.29,2178.42 1342.21,2160.53 1370.04,2110.82C1397.88,2061.12 1427.11,2011.21 1450.96,1971.45C1474.82,1931.68 1510.61,1877.01 1526.52,1863.09C1542.42,1849.17 1571.76,1831.62 1569.51,1816.37C1557.58,1735.35 1551.69,1665.63 1549.7,1619.9C1547.71,1574.17 1549.2,1553.8 1551.69,1521.49C1554.17,1489.18 1557.58,1450.49 1558.65,1426.09C1565.58,1267.29 1336.96,1391.3 1336.96,1391.3L1213.2,1399.25L717.091,1491.88Z" style="fill:rgb(87,85,101);"/>
            </g>
            <g transform="matrix(-1,0,0,1,3349.95,0)">
                <path d="M717.091,1491.88C717.091,1491.88 679.315,1527.67 652.475,1557.49C625.634,1587.32 556.048,1667.84 536.166,1695.67C516.284,1723.51 478.082,1819.28 466.579,1867.65C455.644,1913.63 447.691,1962.59 463.597,2015.27C472.862,2045.96 503.64,2103.44 509.325,2137.55C516.284,2179.3 494.414,2221.05 505.349,2264.79C516.284,2308.53 543.124,2320.46 545.113,2346.31C547.101,2372.15 559.855,2381.21 536.991,2418.99C514.127,2456.77 483.31,2495.53 459.452,2521.38C435.594,2547.23 429.629,2558.16 384.895,2598.92C340.161,2639.68 323.261,2659.56 308.35,2680.44C293.438,2701.31 265.603,2746.05 262.621,2765.93C259.639,2785.81 261.627,2806.69 274.55,2818.62C287.474,2830.55 326.243,2846.45 366.007,2809.67C405.771,2772.89 448.517,2719.21 474.363,2695.35C500.21,2671.49 541.962,2627.75 596.637,2622.78C651.312,2617.81 700.619,2624.58 783.527,2617.81C832.237,2613.83 885.918,2597.93 936.617,2581.03C987.316,2564.13 1027.08,2550.21 1086.72,2503.49C1146.37,2456.77 1162.28,2437.88 1195.08,2393.14C1227.89,2348.41 1262.68,2301.69 1295.49,2240.05C1328.29,2178.42 1342.21,2160.53 1370.04,2110.82C1397.88,2061.12 1427.11,2011.21 1450.96,1971.45C1474.82,1931.68 1510.61,1877.01 1526.52,1863.09C1542.42,1849.17 1571.76,1831.62 1569.51,1816.37C1557.58,1735.35 1551.69,1665.63 1549.7,1619.9C1547.71,1574.17 1549.2,1553.8 1551.69,1521.49C1554.17,1489.18 1557.58,1450.49 1558.65,1426.09C1565.58,1267.29 1336.96,1391.3 1336.96,1391.3L1213.2,1399.25L717.091,1491.88Z" style="fill:rgb(101,55,23);"/>
            </g>
            <g transform="matrix(1,0,0,1,-47.7164,0)">
                <path d="M464.463,1161.38C467.942,1169.83 467.942,1200.65 474.901,1224.01C481.859,1247.37 518.144,1270.73 523.611,1285.64C529.079,1300.56 526.593,1343.3 536.534,1370.14C546.475,1396.98 557.907,1416.37 570.334,1436.75C582.76,1457.12 629.979,1496.89 678.193,1502.36C726.406,1507.82 760.703,1504.35 788.537,1499.87C816.372,1495.4 931.19,1472.04 931.19,1472.04C931.19,1472.04 1001.27,1458.62 1023.64,1454.64C1046.01,1450.66 1105.6,1447.1 1125.98,1448.59C1146.36,1450.08 1229.36,1463 1250.24,1466.48C1250.24,1466.48 1328.3,1476.93 1353.15,1476.43C1378,1475.93 1409.32,1478.92 1431.68,1474.94C1454.05,1470.96 1511.21,1449.59 1527.61,1440.64C1544.02,1431.7 1559.92,1417.28 1560.42,1408.83C1560.91,1400.38 1559.92,1345.28 1572.35,1270.16C1584.77,1195.04 1568.29,1201.32 1523.16,1144.01C1478.03,1086.7 1455.1,1060.91 1418.57,1019.36C1382.03,977.81 1335.4,919.26 1306.74,884.157C1278.09,849.054 1185.67,743.745 1166.33,728.701C1146.99,713.657 1076.48,649.645 1034.72,625.787C992.973,601.929 830.936,490.59 739.479,448.838C648.022,407.086 623.17,400.128 573.465,383.228C523.76,366.329 437.274,349.429 393.534,348.435C349.794,347.441 306.302,356.885 267.533,370.802C228.763,384.719 208.135,393.169 174.336,426.968C140.537,460.768 130.265,478.483 132.838,502.672C134.082,514.364 145.513,531.749 147.004,540.696C148.495,549.643 154.459,583.939 161.915,595.123C169.371,606.306 188.756,627.928 199.939,638.366C211.123,648.804 226.78,689.81 235.727,702.485C244.673,715.16 275.242,736.781 279.715,748.71C284.189,760.639 282.698,780.77 291.644,794.936C300.591,809.102 340.107,847.126 347.562,862.037C355.018,876.948 353.527,897.825 367.693,927.647C381.859,957.47 405.22,972.506 413.173,995.494C420.814,1017.58 404.971,1023.83 415.409,1065.58C425.847,1107.33 434.577,1117.91 434.577,1117.91C434.577,1117.91 460.983,1152.93 464.463,1161.38Z" style="fill:rgb(249,241,111);"/>
            </g>
            <g transform="matrix(-1,0,0,1,3351.06,0)">
                <path d="M464.463,1161.38C467.942,1169.83 467.942,1200.65 474.901,1224.01C481.859,1247.37 518.144,1270.73 523.611,1285.64C529.079,1300.56 526.593,1343.3 536.534,1370.14C546.475,1396.98 557.907,1416.37 570.334,1436.75C582.76,1457.12 629.979,1496.89 678.193,1502.36C726.406,1507.82 760.703,1504.35 788.537,1499.87C816.372,1495.4 931.19,1472.04 931.19,1472.04C931.19,1472.04 1001.27,1458.62 1023.64,1454.64C1046.01,1450.66 1105.6,1447.1 1125.98,1448.59C1146.36,1450.08 1229.36,1463 1250.24,1466.48C1250.24,1466.48 1328.3,1476.93 1353.15,1476.43C1378,1475.93 1409.32,1478.92 1431.68,1474.94C1454.05,1470.96 1511.21,1449.59 1527.61,1440.64C1544.02,1431.7 1559.92,1417.28 1560.42,1408.83C1560.91,1400.38 1559.92,1345.28 1572.35,1270.16C1584.77,1195.04 1568.29,1201.32 1523.16,1144.01C1478.03,1086.7 1455.1,1060.91 1418.57,1019.36C1382.03,977.81 1335.4,919.26 1306.74,884.157C1278.09,849.054 1185.67,743.745 1166.33,728.701C1146.99,713.657 1076.48,649.645 1034.72,625.787C992.973,601.929 830.936,490.59 739.479,448.838C648.022,407.086 623.17,400.128 573.465,383.228C523.76,366.329 437.274,349.429 393.534,348.435C349.794,347.441 306.302,356.885 267.533,370.802C228.763,384.719 208.135,393.169 174.336,426.968C140.537,460.768 130.265,478.483 132.838,502.672C134.082,514.364 145.513,531.749 147.004,540.696C148.495,549.643 154.459,583.939 161.915,595.123C169.371,606.306 188.756,627.928 199.939,638.366C211.123,648.804 226.78,689.81 235.727,702.485C244.673,715.16 275.242,736.781 279.715,748.71C284.189,760.639 282.698,780.77 291.644,794.936C300.591,809.102 340.107,847.126 347.562,862.037C355.018,876.948 353.527,897.825 367.693,927.647C381.859,957.47 405.22,972.506 413.173,995.494C420.814,1017.58 404.971,1023.83 415.409,1065.58C425.847,1107.33 434.577,1117.91 434.577,1117.91C434.577,1117.91 460.983,1152.93 464.463,1161.38Z" style="fill:rgb(87,191,237);"/>
            </g>
        </g>
        <g id="Layer1" transform="matrix(1.09591,-0.2125,0.09752,0.502931,-288.091,1040.13)">
            <g transform="matrix(0.939384,-0.342866,0.251311,0.688541,-354.146,857.329)">
                <path d="M508.773,1528.64L1391.46,1528.64C1472.06,1649.91 1562.95,1563.86 1584.26,1535.24C1586.39,1532.38 1587.82,1530.09 1588.48,1528.64L1588.48,1529.85C1586.34,1535.95 1584.78,1540.34 1583.85,1542.87C1582.53,1546.44 1580.7,1550.03 1578.46,1553.55C1575.42,1562.81 1572.11,1572.39 1568.51,1582.31C1556.73,1614.79 1540.64,1657.6 1523.77,1702.21C1523.59,1702.67 1523.41,1703.14 1523.24,1703.6L426.756,1703.6C426.951,1703.14 427.146,1702.67 427.341,1702.21C444.098,1662.35 459.546,1627.72 470.926,1604.01C482.264,1580.38 495.175,1554.72 508.773,1528.64Z" style="fill:rgb(213,108,122);"/>
            </g>
            <g transform="matrix(0.939384,-0.342866,0.251311,0.688541,-315.377,978.608)">
                <path d="M432.503,1528.64L1528.93,1528.64C1528.75,1529.1 1528.58,1529.57 1528.4,1530.03C1515.81,1563.33 1502.8,1597.58 1490.85,1629.25C1481.11,1655.06 1472.62,1677.58 1464.19,1700.57C1463.82,1701.58 1463.45,1702.59 1463.08,1703.6L364.652,1703.6C365.006,1702.59 365.361,1701.58 365.717,1700.57C385.87,1643.33 409.986,1582.27 431.919,1530.03C432.114,1529.57 432.309,1529.1 432.503,1528.64Z" style="fill:rgb(249,241,111);"/>
            </g>
            <g transform="matrix(0.939384,-0.342866,0.251311,0.688541,-274.619,1097.88)">
                <path d="M368.325,1528.64L1466.8,1528.64C1466.43,1529.65 1466.06,1530.66 1465.69,1531.67C1450.14,1574.19 1434.62,1618.88 1411.64,1689.41C1410.53,1692.82 1409.4,1696.3 1408.25,1699.83C1407.85,1701.08 1407.44,1702.34 1407.03,1703.6L325.978,1703.6L325.978,1678.19C327.2,1673.52 328.427,1669.07 329.662,1664.86C334.698,1647.7 349.223,1584.74 359.258,1554.94C361.838,1547.29 364.51,1539.52 367.259,1531.67C367.613,1530.66 367.968,1529.65 368.325,1528.64Z" style="fill:rgb(234,243,251);"/>
            </g>
            <g transform="matrix(1.01234,-0.369494,0.251311,0.688541,-365.41,1264.6)">
                <path d="M429.768,1528.64L1438.95,1528.64C1438.57,1529.89 1438.19,1531.14 1437.81,1532.41C1423.67,1579.49 1407,1636.44 1388.54,1701.33C1388.33,1702.09 1388.11,1702.84 1387.89,1703.6L398.943,1703.6C399.071,1702.85 399.2,1702.09 399.328,1701.33C409.499,1641.21 419.448,1577.11 429.768,1528.64Z" style="fill:rgb(87,191,237);"/>
            </g>
            <g transform="matrix(1.01234,-0.369494,0.251311,0.688541,-332.232,1387.23)">
                <path d="M409.424,1528.64L1398.64,1528.64C1398.42,1529.4 1398.21,1530.15 1397.99,1530.91C1383.01,1583.62 1366.87,1641.52 1349.95,1703.6L369.94,1703.6C375.406,1686.98 380.524,1669.91 385.108,1652.11C393.393,1619.95 401.283,1576.66 409.04,1530.91C409.168,1530.15 409.296,1529.4 409.424,1528.64Z" style="fill:rgb(84,185,131);"/>
            </g>
        </g>
        <g id="Layer11" serif:id="Layer1" transform="matrix(-1.09591,-0.2125,-0.09752,0.502931,3590.28,1040.13)">
            <g transform="matrix(0.939384,-0.342866,0.251311,0.688541,-354.146,857.329)">
                <path d="M508.773,1528.64L1391.46,1528.64C1472.06,1649.91 1562.95,1563.86 1584.26,1535.24C1586.39,1532.38 1587.82,1530.09 1588.48,1528.64L1588.48,1529.85C1586.34,1535.95 1584.78,1540.34 1583.85,1542.87C1582.53,1546.44 1580.7,1550.03 1578.46,1553.55C1575.42,1562.81 1572.11,1572.39 1568.51,1582.31C1556.73,1614.79 1540.64,1657.6 1523.77,1702.21C1523.59,1702.67 1523.41,1703.14 1523.24,1703.6L426.756,1703.6C426.951,1703.14 427.146,1702.67 427.341,1702.21C444.098,1662.35 459.546,1627.72 470.926,1604.01C482.264,1580.38 495.175,1554.72 508.773,1528.64Z" style="fill:rgb(213,108,122);"/>
            </g>
            <g transform="matrix(0.939384,-0.342866,0.251311,0.688541,-315.377,978.608)">
                <path d="M432.503,1528.64L1528.93,1528.64C1528.75,1529.1 1528.58,1529.57 1528.4,1530.03C1515.81,1563.33 1502.8,1597.58 1490.85,1629.25C1481.11,1655.06 1472.62,1677.58 1464.19,1700.57C1463.82,1701.58 1463.45,1702.59 1463.08,1703.6L364.652,1703.6C365.006,1702.59 365.361,1701.58 365.717,1700.57C385.87,1643.33 409.986,1582.27 431.919,1530.03C432.114,1529.57 432.309,1529.1 432.503,1528.64Z" style="fill:rgb(250,171,113);"/>
            </g>
            <g transform="matrix(0.939384,-0.342866,0.251311,0.688541,-274.619,1097.88)">
                <path d="M368.325,1528.64L1466.8,1528.64C1466.43,1529.65 1466.06,1530.66 1465.69,1531.67C1450.14,1574.19 1434.62,1618.88 1411.64,1689.41C1410.53,1692.82 1409.4,1696.3 1408.25,1699.83C1407.85,1701.08 1407.44,1702.34 1407.03,1703.6L325.978,1703.6L325.978,1678.19C327.2,1673.52 328.427,1669.07 329.662,1664.86C334.698,1647.7 349.223,1584.74 359.258,1554.94C361.838,1547.29 364.51,1539.52 367.259,1531.67C367.613,1530.66 367.968,1529.65 368.325,1528.64Z" style="fill:rgb(184,103,40);"/>
            </g>
            <g transform="matrix(1.01234,-0.369494,0.251311,0.688541,-365.41,1264.6)">
                <path d="M429.768,1528.64L1438.95,1528.64C1438.57,1529.89 1438.19,1531.14 1437.81,1532.41C1423.67,1579.49 1407,1636.44 1388.54,1701.33C1388.33,1702.09 1388.11,1702.84 1387.89,1703.6L398.943,1703.6C399.071,1702.85 399.2,1702.09 399.328,1701.33C409.499,1641.21 419.448,1577.11 429.768,1528.64Z" style="fill:rgb(150,50,31);"/>
            </g>
            <g transform="matrix(1.01234,-0.369494,0.251311,0.688541,-332.232,1387.23)">
                <path d="M409.424,1528.64L1398.64,1528.64C1398.42,1529.4 1398.21,1530.15 1397.99,1530.91C1383.01,1583.62 1366.87,1641.52 1349.95,1703.6L369.94,1703.6C375.406,1686.98 380.524,1669.91 385.108,1652.11C393.393,1619.95 401.283,1576.66 409.04,1530.91C409.168,1530.15 409.296,1529.4 409.424,1528.64Z" style="fill:rgb(60,33,17);"/>
            </g>
        </g>
        <g id="Layer2" transform="matrix(1.71972,0.603013,-0.521856,1.48827,-498.784,-1909.91)">
            <g transform="matrix(1,0,0,1,-53.6811,-35.7874)">
                <path d="M1957.37,1541L1957.37,1584.74L1856.22,1582.38L1856.08,1582.03C1851.78,1570.77 1847.71,1559.97 1844.87,1551.78C1844.01,1549.29 1843.27,1546.87 1842.64,1544.54C1841.78,1543.64 1841.15,1542.73 1840.83,1541.83C1840.59,1541.19 1840.24,1540.08 1839.74,1538.55L1839.89,1538.25C1840.1,1538.62 1840.65,1539.2 1841.54,1539.94C1850.41,1547.3 1892.74,1569.81 1954.82,1540.94L1957.37,1541Z" style="fill:rgb(244,152,192);"/>
            </g>
            <g transform="matrix(1,0,0,1,177.446,65.6103)">
                <path d="M1838.08,1485.96L1838.08,1442.21L1957.37,1445.01L1957.37,1488.75L1838.08,1485.96Z" style="fill:rgb(249,241,111);"/>
            </g>
            <g transform="matrix(1,0,0,1,296.228,80.5217)">
                <path d="M1957.37,1432.87L1957.37,1476.62L1838.08,1473.83L1838.08,1430.08L1957.37,1432.87Z" style="fill:rgb(84,185,131);"/>
            </g>
            <g transform="matrix(1,0,0,1,415.029,102.143)">
                <path d="M1957.37,1414.03L1957.37,1457.77L1838.08,1454.98L1838.08,1411.24L1957.37,1414.03Z" style="fill:rgb(87,191,237);"/>
            </g>
            <g transform="matrix(1,0,0,1,532.829,117.055)">
                <path d="M1838.08,1442.83L1838.08,1399.08L1883.2,1400.14C1887.9,1406.77 1892.24,1413.29 1895.92,1419.28C1899.61,1425.29 1904.32,1434.06 1909.15,1444.14C1909.2,1444.26 1909.26,1444.38 1909.32,1444.49L1838.08,1442.83Z" style="fill:rgb(96,60,151);"/>
            </g>
        </g>
        <g id="Justice" transform="matrix(1,0,0,1,0.80818,0.332361)">
            <g transform="matrix(1,0,0,1,-12,0)">
                <path d="M1549.6,2048.16C1549.6,2048.16 1593.84,2204.23 1603.29,2221.63C1612.73,2239.03 1636.59,2258.91 1656.97,2259.41C1677.35,2259.9 1701.2,2240.52 1711.64,2221.63C1722.08,2202.74 1731.17,2164.7 1731.17,2164.7C1731.17,2164.7 1723.09,2174.91 1694.74,2174.91C1671.88,2174.91 1658.12,2171.03 1657.59,2163.47C1657.09,2156.43 1666.28,2147.51 1692.88,2147.32C1721.96,2147.12 1735.59,2150.94 1735.59,2150.94C1735.59,2150.94 1740.73,2137.89 1744.69,2123.47C1747.97,2111.55 1751.53,2096.12 1751.53,2096.12C1751.53,2096.12 1721.71,2104.63 1702.43,2104.82C1693.59,2104.91 1652.12,2103.58 1652.12,2091.9C1652.12,2080.22 1680.45,2075 1702.07,2074.75C1723.69,2074.5 1754.4,2082.82 1754.4,2082.82C1754.4,2082.82 1759.49,2069.91 1762.64,2056.68C1767.97,2034.31 1765.96,2031.31 1763.02,2028.61C1759.65,2025.52 1727.1,2017.38 1703.32,2015.36C1677.79,2013.18 1634.86,2014.43 1610.12,2017.51C1590.97,2019.89 1566.63,2023.56 1557.93,2027.78C1549.23,2032.01 1548.49,2038.55 1548.57,2041.95" style="fill:rgb(234,243,251);"/>
            </g>
            <g transform="matrix(1,0,0,0.978549,-12,43.0596)">
                <path d="M1527.55,1891.35C1526.06,1923.04 1531.84,1960.7 1542.84,1973.36C1555.14,1987.53 1580.87,2006.26 1654.67,2007.29C1707.98,2008.03 1751.6,2003.56 1765.76,1992.38C1779.93,1981.19 1786.64,1929.75 1786.64,1929.75C1786.64,1929.75 1772.1,1938.69 1730.72,1936.83C1689.34,1934.97 1637.53,1928.63 1637.9,1905.89C1638.27,1883.15 1696.05,1879.05 1730.35,1880.54C1767.71,1882.16 1788.88,1896.94 1788.88,1896.94C1788.88,1896.94 1787.38,1834.31 1779.56,1826.11C1771.73,1817.91 1732.21,1797.41 1666.6,1798.9C1600.99,1800.39 1567.12,1812.76 1554.02,1826.86C1541.99,1839.81 1529.05,1859.66 1527.55,1891.35Z" style="fill:rgb(234,243,251);"/>
            </g>
            <g transform="matrix(1,0,0,1,-3.87695,1)">
                <path d="M1604.03,1707.54C1604.03,1698.74 1600.54,1685.16 1597.28,1681.13C1592.38,1675.06 1573.42,1674.5 1565.8,1674.67C1558.18,1674.83 1542.11,1675.49 1542.11,1678.48C1542.11,1681.46 1546.06,1683.85 1546.06,1683.85C1546.06,1683.85 1543.29,1686.19 1535.62,1687.26C1527.95,1688.32 1518.43,1680.84 1515.09,1672.4C1511.98,1664.54 1505.72,1629.1 1512.43,1623.14C1519.14,1617.17 1606.63,1619.16 1658.16,1619.16C1711.35,1619.16 1793.29,1617.17 1800,1623.14C1806.71,1629.1 1801.64,1664.54 1798.53,1672.4C1795.19,1680.84 1784.48,1688.32 1776.81,1687.26C1769.14,1686.19 1766.37,1683.85 1766.37,1683.85C1766.37,1683.85 1770.32,1681.46 1770.32,1678.48C1770.32,1675.49 1754.25,1674.83 1746.63,1674.67C1739.01,1674.5 1720.05,1675.06 1715.15,1681.13C1711.89,1685.16 1708.4,1698.74 1708.4,1707.54C1708.4,1716.35 1711.89,1729.92 1715.15,1733.96C1720.05,1740.02 1739.01,1740.58 1746.63,1740.42C1754.25,1740.25 1770.32,1739.59 1770.32,1736.61C1770.32,1733.62 1766.37,1731.24 1766.37,1731.24C1766.37,1731.24 1769.14,1728.89 1776.81,1727.83C1784.48,1726.76 1789.53,1734.25 1792.87,1742.68C1795.97,1750.55 1788.49,1786.49 1781.78,1792.46C1775.07,1798.42 1711.35,1795.92 1658.16,1795.92C1606.63,1795.92 1534.97,1798.34 1528.26,1792.38C1521.55,1786.41 1516.45,1750.55 1519.56,1742.68C1522.9,1734.25 1527.95,1726.76 1535.62,1727.83C1543.29,1728.89 1546.06,1731.24 1546.06,1731.24C1546.06,1731.24 1542.11,1733.62 1542.11,1736.61C1542.11,1739.59 1558.18,1740.25 1565.8,1740.42C1573.42,1740.58 1592.38,1740.02 1597.28,1733.96C1600.54,1729.92 1604.03,1716.35 1604.03,1707.54Z" style="fill:rgb(234,243,251);"/>
            </g>
            <g transform="matrix(1,0,0,1,-3.87695,-159.061)">
                <path d="M1604.03,1707.54C1604.03,1697.58 1600.54,1685.16 1597.28,1681.13C1592.38,1675.06 1573.42,1674.5 1565.8,1674.67C1558.18,1674.83 1542.11,1675.49 1542.11,1678.48C1542.11,1681.46 1546.06,1683.85 1546.06,1683.85C1546.06,1683.85 1543.29,1686.19 1535.62,1687.26C1527.95,1688.32 1518.43,1680.84 1515.09,1672.4C1511.98,1664.54 1510.51,1628.92 1517.22,1622.95C1523.93,1616.99 1606.63,1619.16 1658.16,1619.16C1711.35,1619.16 1785.21,1616.95 1791.92,1622.91C1798.63,1628.88 1801.64,1664.54 1798.53,1672.4C1795.19,1680.84 1784.48,1688.32 1776.81,1687.26C1769.14,1686.19 1766.37,1683.85 1766.37,1683.85C1766.37,1683.85 1770.32,1681.46 1770.32,1678.48C1770.32,1675.49 1754.25,1674.83 1746.63,1674.67C1739.01,1674.5 1720.05,1675.06 1715.15,1681.13C1711.89,1685.16 1708.4,1698.74 1708.4,1707.54C1708.4,1716.35 1712.97,1729.25 1715.15,1733.96C1722.79,1750.46 1782.98,1768.38 1781.78,1772.47C1781,1775.16 1711.35,1773.8 1658.16,1773.8C1606.63,1773.8 1541.34,1774.95 1541.02,1773.16C1540.33,1769.21 1586.16,1755.93 1597.28,1733.96C1599.62,1729.33 1604.03,1716.35 1604.03,1707.54Z" style="fill:rgb(234,243,251);"/>
            </g>
            <g transform="matrix(0.989234,0,0,1,12.1193,0)">
                <path d="M1519.68,1368.4L1518.17,1438.73C1518.17,1438.73 1524.88,1453.68 1647.9,1454.63C1758.99,1455.5 1780.04,1451.47 1793.12,1439.58C1807.08,1426.91 1805.6,1375.96 1792.12,1369.5C1773.61,1360.62 1737.65,1359.31 1715.53,1356.33C1693.41,1353.34 1679,1350.11 1679,1344.4C1679,1338.68 1709.82,1338.43 1726.47,1340.42C1743.12,1342.41 1791.64,1347.88 1796.11,1350.36L1788.83,1285C1788.83,1285 1723.89,1275.02 1661.01,1274.27C1598.13,1273.53 1552.76,1275.43 1538.99,1284.21C1519.1,1296.89 1511.65,1342.12 1534.02,1359.27C1556.38,1376.42 1616.53,1375.67 1629.94,1376.91C1643.37,1378.16 1664.99,1377.66 1664.99,1383.62C1664.99,1387.85 1622.74,1391.58 1594.16,1388.84C1565.58,1386.11 1549.62,1383.59 1537.99,1379.4C1525.57,1374.93 1519.68,1368.4 1519.68,1368.4Z" style="fill:rgb(234,243,251);"/>
            </g>
            <path d="M1639.76,1107.76L1555.26,1107.76C1555.26,1107.76 1517.99,1188.78 1535.38,1218.61C1552.78,1248.43 1587.57,1270.8 1653.68,1269.8C1719.79,1268.81 1769.46,1246.12 1773.97,1219.1C1781.42,1174.37 1746.88,1109.01 1746.88,1109.01L1660.89,1108.01C1660.89,1108.01 1659.4,1105.8 1662.8,1128.29C1665.39,1145.4 1678.53,1214.63 1654.18,1215.13C1629.82,1215.62 1637.77,1150.01 1639.76,1127.65C1641.75,1105.28 1639.76,1107.76 1639.76,1107.76Z" style="fill:rgb(234,243,251);"/>
            <path d="M1655.07,900.715C1691.66,900.675 1716.32,909.181 1722.55,913.731C1726.51,916.631 1729.77,925.44 1733.86,938.387C1736.47,946.636 1737.79,962.802 1734.74,966.161C1734.74,966.161 1727.86,960.18 1724.26,958.401C1712.2,952.46 1698.2,950.164 1691.82,949.378C1694.11,954.866 1715.7,1006.81 1719.76,1023.58C1724.05,1041.28 1733.79,1065.56 1723.38,1081.73C1714.22,1095.96 1679.69,1100.74 1645.77,1100.37C1611.84,1100 1579.22,1091.98 1570.65,1080.99C1564.49,1073.09 1563.94,1057.69 1569.53,1034.76C1575.12,1011.83 1587.24,999.345 1587.24,999.345C1592.83,1014.44 1608.47,1006.04 1614.43,997.09C1620.4,988.143 1626.06,948.181 1626.06,948.181C1626.06,948.181 1606.34,949.579 1590.13,957.566C1586.52,959.344 1579.65,965.326 1579.65,965.326C1576.59,961.967 1577.92,945.801 1580.52,937.552C1584.62,924.605 1588.99,915.915 1591.84,912.896C1596.27,908.206 1619.19,900.754 1655.07,900.715Z" style="fill:rgb(234,243,251);"/>
            <g transform="matrix(0.901699,-0.663828,0.667882,0.907205,-304.584,987.591)">
                <ellipse cx="1400.48" cy="651.566" rx="22.864" ry="29.326" style="fill:rgb(234,243,251);"/>
            </g>
            <g transform="matrix(-0.901699,-0.663828,-0.667882,0.907205,3621.47,987.591)">
                <ellipse cx="1400.48" cy="651.566" rx="22.864" ry="29.326" style="fill:rgb(234,243,251);"/>
            </g>
            <path d="M1368.16,634.569C1368.16,634.569 1356.61,606.61 1373.38,601.764C1390.16,596.918 1442.35,642.025 1482.23,692.351C1522.12,742.677 1606.37,886.572 1612.71,901.856L1619.05,917.14" style="fill:none;stroke:rgb(234,243,251);stroke-width:9.31px;"/>
            <g transform="matrix(-1,0,0,1,3316.34,0)">
                <path d="M1368.16,634.569C1368.16,634.569 1356.61,606.61 1373.38,601.764C1390.16,596.918 1442.35,642.025 1482.23,692.351C1522.12,742.677 1606.37,886.572 1612.71,901.856L1619.05,917.14" style="fill:none;stroke:rgb(234,243,251);stroke-width:9.31px;"/>
            </g>
        </g>
        <g id="symbols" transform="matrix(1,0,0,1,0.80818,0.332361)">
            <g transform="matrix(0.821034,0,0,0.821034,56.7839,127.821)">
                <circle cx="822.211" cy="1219.14" r="224.963" style="fill:none;stroke:rgb(96,60,151);stroke-width:101.5px;"/>
            </g>
            <g transform="matrix(0.785143,-1.00614,1.00614,0.785143,-654.722,2849.6)">
                <circle cx="2608.39" cy="1143.49" r="111.229" style="fill:none;stroke:rgb(244,152,192);stroke-width:32.65px;"/>
            </g>
            <g transform="matrix(0.0424548,-0.938844,1.27493,0.0576527,937.024,3395.62)">
                <path d="M2490.43,974.05L2464.13,991.422L2447.36,977.656L2506.27,938.736L2508.81,937.017L2564.38,981.653L2545.87,994.151L2519.5,972.973L2519.5,1002.36L2550.75,1002.54L2550.54,1023.95L2519.5,1023.78L2519.5,1053.94L2490.43,1053.94L2490.43,1023.62L2457.76,1023.44L2457.97,1002.02L2490.43,1002.2L2490.43,974.05Z" style="fill:rgb(244,152,192);"/>
            </g>
            <g transform="matrix(0.782435,-0.520602,0.706967,1.06253,12.5333,1559.94)">
                <path d="M2490.43,974.05L2489.98,938.566L2519.21,939.07L2519.5,972.973L2519.5,1002.36L2550.75,1002.54L2550.54,1023.95L2519.5,1023.78L2519.5,1053.94L2490.43,1053.94L2490.43,1023.62L2457.76,1023.44L2457.97,1002.02L2490.43,1002.2L2490.43,974.05Z" style="fill:rgb(244,152,192);"/>
            </g>
            <g transform="matrix(0.931054,0.12794,-0.17374,1.26435,422.65,-679.527)">
                <path d="M2490.43,974.05L2464.13,991.422L2447.36,977.656L2506.27,938.736L2508.81,937.017L2564.38,981.653L2545.87,994.151L2519.5,972.973L2519.5,1053.94L2490.43,1053.94L2490.43,974.05Z" style="fill:rgb(244,152,192);"/>
            </g>
        </g>
        <g transform="matrix(0.776278,0.63039,-0.63039,0.776278,1695.08,-1162.17)">
            <g transform="matrix(0.97421,0.225641,-0.225641,0.97421,533.802,-386.627)">
                <path d="M2034.6,2162.36C2034.6,2154.06 2033.86,2147.99 2032.4,2144.14C2030.99,2140.28 2028.17,2138.36 2023.93,2138.36C2021.55,2138.36 2019.51,2138.95 2017.83,2140.15C2016.2,2141.34 2015.17,2142.81 2014.74,2144.54C2014.31,2146.22 2014.22,2147.93 2014.5,2149.67C2014.77,2151.41 2015.53,2152.92 2016.77,2154.23C2018.08,2155.53 2019.68,2156.26 2021.58,2156.42C2020.43,2160.76 2017.32,2164.32 2012.22,2167.09C2007.12,2169.85 2001.64,2171.24 1995.78,2171.24C1990.68,2171.24 1985.96,2170.07 1981.62,2167.74C1977.28,2165.4 1973.7,2161.88 1970.88,2157.16C1968.11,2152.44 1966.72,2146.96 1966.72,2140.72C1966.72,2110.61 2001.07,2095.55 2069.75,2095.55C2080.28,2095.55 2089.47,2095.8 2097.34,2096.28C2105.21,2096.77 2112.39,2097.61 2118.91,2098.81C2125.42,2100 2130.84,2101.55 2135.18,2103.45C2139.52,2105.34 2143.16,2107.76 2146.09,2110.69C2149.07,2113.56 2151.21,2116.93 2152.51,2120.78C2153.87,2124.58 2154.55,2129 2154.55,2134.04C2154.55,2140.28 2153.49,2145.71 2151.38,2150.32C2149.32,2154.88 2146.52,2158.59 2142.99,2161.47C2139.52,2164.35 2135.1,2166.87 2129.73,2169.04C2128.37,2169.58 2127.86,2170.64 2128.18,2172.21C2128.56,2174.06 2130,2175.3 2132.5,2175.95C2133.53,2176.23 2134.61,2176.36 2135.75,2176.36C2142.53,2176.36 2148.47,2174.87 2153.57,2171.89L2153.57,2228.2C2145.38,2230.53 2136.62,2231.7 2127.29,2231.7C2117.9,2231.7 2110.66,2228.61 2105.56,2222.42C2100.51,2216.18 2096.58,2206.07 2093.76,2192.07C2092.95,2188.05 2090.94,2186.05 2087.74,2186.05C2086.27,2186.05 2085.02,2186.59 2083.99,2187.67C2082.96,2188.7 2082.45,2190.12 2082.45,2191.91C2082.45,2205.31 2083.26,2218.84 2084.89,2232.51L2033.46,2232.35C2034.22,2217.54 2034.6,2194.21 2034.6,2162.36ZM2082.45,2145.84C2082.45,2150.29 2083.37,2153.36 2085.21,2155.04C2087.11,2156.72 2089.74,2157.56 2093.11,2157.56C2096.85,2157.56 2099.59,2156.37 2101.33,2153.98C2103.06,2151.54 2103.93,2148.29 2103.93,2144.22C2103.93,2140.04 2102.66,2136.81 2100.11,2134.53C2097.61,2132.2 2094.44,2131.03 2090.59,2131.03L2082.45,2131.03L2082.45,2145.84Z" style="fill:rgb(234,243,251);fill-rule:nonzero;"/>
            </g>
            <g transform="matrix(0.973322,0.229445,-0.229445,0.973322,545.006,-374.972)">
                <path d="M2220.88,2226.57C2199.88,2226.57 2184.96,2222.64 2176.12,2214.77C2167.27,2206.91 2162.85,2193.67 2162.85,2175.06C2162.85,2156.29 2166.95,2142.97 2175.14,2135.1C2183.33,2127.18 2197.14,2123.22 2216.56,2123.22C2223.72,2123.22 2230.07,2123.76 2235.61,2124.85C2241.19,2125.88 2245.8,2127.32 2249.44,2129.16C2253.07,2130.95 2256.06,2133.15 2258.39,2135.75C2260.78,2138.36 2262.46,2141.12 2263.44,2144.05C2264.41,2146.98 2264.9,2150.21 2264.9,2153.74C2264.9,2157.48 2264.33,2160.87 2263.19,2163.91C2262.11,2166.89 2260.75,2169.34 2259.12,2171.24C2257.5,2173.13 2255.46,2174.79 2253.02,2176.2C2250.58,2177.61 2248.3,2178.67 2246.18,2179.37C2244.07,2180.02 2241.65,2180.57 2238.94,2181C2236.28,2181.38 2234.22,2181.6 2232.76,2181.65C2231.35,2181.71 2229.77,2181.73 2228.04,2181.73C2225.54,2181.73 2223.02,2181.65 2220.47,2181.49C2217.97,2181.27 2216.1,2181.11 2214.85,2181C2213.61,2180.84 2212.44,2180.78 2211.35,2180.84C2210.27,2180.89 2209.54,2181.14 2209.16,2181.57C2208.78,2182 2208.59,2182.71 2208.59,2183.69C2208.59,2186.07 2210.38,2188.05 2213.96,2189.63C2217.59,2191.15 2222.18,2191.91 2227.71,2191.91C2240.57,2191.91 2252.29,2188.95 2262.87,2183.03L2263.52,2219.25C2263.25,2219.47 2262.81,2219.74 2262.22,2220.06C2261.67,2220.39 2260.24,2220.99 2257.9,2221.85C2255.57,2222.67 2252.94,2223.4 2250.01,2224.05C2247.08,2224.7 2243.01,2225.27 2237.8,2225.76C2232.59,2226.3 2226.95,2226.57 2220.88,2226.57ZM2207.2,2167.09C2212.3,2167.79 2216.43,2167.49 2219.57,2166.19C2222.77,2164.89 2224.37,2162.55 2224.37,2159.19C2224.37,2157.02 2223.59,2155.26 2222.01,2153.9C2220.44,2152.55 2218.46,2151.87 2216.07,2151.87C2213.31,2151.87 2211.03,2153.17 2209.24,2155.77C2207.5,2158.38 2206.82,2162.15 2207.2,2167.09Z" style="fill:rgb(234,243,251);fill-rule:nonzero;"/>
            </g>
            <g transform="matrix(0.885685,0.277172,-0.277172,0.885685,861.877,-298.768)">
                <path d="M2320.24,2191.91C2320.24,2192.88 2320.86,2193.7 2322.11,2194.35C2323.36,2194.94 2324.91,2195.24 2326.75,2195.24C2330.49,2195.24 2333.15,2193.4 2334.73,2189.71C2336.3,2185.97 2337.09,2179.91 2337.09,2171.56C2337.09,2164.72 2336.43,2159.98 2335.13,2157.32C2333.83,2154.61 2331.63,2153.25 2328.54,2153.25C2325.94,2153.25 2323.9,2153.98 2322.44,2155.45C2320.97,2156.86 2320.24,2159 2320.24,2161.88L2320.24,2191.91ZM2275.56,2250.42C2276.32,2237.23 2276.7,2216.26 2276.7,2187.51C2276.7,2160.33 2276.32,2139.44 2275.56,2124.85C2283.16,2126.53 2290.54,2127.37 2297.7,2127.37C2302.04,2127.37 2307.74,2126.69 2314.79,2125.34C2321.89,2123.93 2329.44,2123.22 2337.41,2123.22C2352.87,2123.22 2364.48,2127.02 2372.24,2134.61C2380,2142.16 2383.88,2154.42 2383.88,2171.4C2383.88,2190.12 2380.6,2203.84 2374.03,2212.58C2367.47,2221.31 2357.3,2225.68 2343.51,2225.68C2333.59,2225.68 2325.83,2223.43 2320.24,2218.92L2319.75,2218.92C2320.19,2232.92 2320.46,2243.42 2320.57,2250.42L2275.56,2250.42Z" style="fill:rgb(234,243,251);fill-rule:nonzero;"/>
            </g>
            <g transform="matrix(0.950007,0.312228,-0.312228,0.950007,777.465,-497.781)">
                <path d="M2449.72,2174.08C2452.7,2171.1 2454.19,2167.93 2454.19,2164.56C2454.19,2161.14 2453.57,2158.68 2452.32,2157.16C2451.13,2155.64 2449.15,2154.88 2446.38,2154.88C2443.18,2154.88 2440.9,2155.64 2439.54,2157.16C2438.19,2158.62 2437.51,2161.14 2437.51,2164.72C2437.51,2169.99 2437.54,2174.03 2437.59,2176.85C2437.64,2179.62 2437.83,2183.41 2438.16,2188.24C2438.49,2193.07 2438.97,2197.17 2439.62,2200.53C2440.33,2203.89 2441.33,2207.69 2442.64,2211.93C2443.94,2216.16 2445.57,2220.2 2447.52,2224.05L2395.35,2224.05C2396.11,2213.53 2396.49,2196.98 2396.49,2174.41C2396.49,2152.87 2396.11,2136.35 2395.35,2124.85C2401.49,2126.15 2406.99,2126.94 2411.87,2127.21C2416.76,2127.43 2420.99,2127.26 2424.57,2126.72C2428.2,2126.12 2431.6,2125.45 2434.74,2124.68C2437.89,2123.93 2441.66,2123.22 2446.05,2122.57C2450.45,2121.86 2455.03,2121.51 2459.81,2121.51C2464.96,2121.51 2469.52,2122.08 2473.48,2123.22C2477.44,2124.36 2480.94,2126.18 2483.98,2128.67C2487.01,2131.11 2489.32,2134.51 2490.89,2138.85C2492.52,2143.13 2493.34,2148.26 2493.34,2154.23C2493.34,2162.96 2491.36,2169.85 2487.39,2174.9C2483.43,2179.89 2477.87,2182.38 2470.71,2182.38C2466.1,2182.38 2461.95,2181.62 2458.26,2180.11C2454.57,2178.53 2451.72,2176.53 2449.72,2174.08Z" style="fill:rgb(234,243,251);fill-rule:nonzero;"/>
            </g>
            <g transform="matrix(0.958332,0.285656,-0.285656,0.958332,696.801,-440.173)">
                <path d="M2557.3,2194.59C2560.66,2194.59 2563.05,2192.86 2564.46,2189.38C2565.93,2185.91 2566.66,2180.08 2566.66,2171.89C2566.66,2164.56 2565.93,2159.35 2564.46,2156.26C2563.05,2153.11 2560.66,2151.54 2557.3,2151.54C2554.05,2151.54 2551.74,2153.11 2550.38,2156.26C2549.03,2159.35 2548.35,2164.56 2548.35,2171.89C2548.35,2180.13 2549.03,2185.99 2550.38,2189.46C2551.74,2192.88 2554.05,2194.59 2557.3,2194.59ZM2501.64,2174.41C2501.64,2155.31 2505.89,2141.72 2514.41,2133.64C2522.93,2125.55 2537.23,2121.51 2557.3,2121.51C2577.54,2121.51 2591.94,2125.58 2600.51,2133.72C2609.09,2141.8 2613.37,2155.42 2613.37,2174.57C2613.37,2193.4 2609.09,2206.77 2600.51,2214.69C2592,2222.61 2577.59,2226.57 2557.3,2226.57C2537.17,2226.57 2522.85,2222.61 2514.33,2214.69C2505.87,2206.72 2501.64,2193.29 2501.64,2174.41Z" style="fill:rgb(234,243,251);fill-rule:nonzero;"/>
            </g>
            <g transform="matrix(0.999025,0.0441416,-0.0441416,0.999025,71.3465,111.176)">
                <path d="M2669.85,2225.68C2654.33,2225.68 2642.7,2221.5 2634.94,2213.15C2627.18,2204.79 2623.3,2191.25 2623.3,2172.54C2623.3,2155.56 2626.58,2143.1 2633.15,2135.18C2639.77,2127.21 2649.94,2123.22 2663.66,2123.22C2673.59,2123.22 2681.38,2125.5 2687.02,2130.06L2687.83,2130.06C2687.67,2119.69 2687.13,2109.9 2686.21,2100.68L2731.7,2100.68C2730.89,2115.65 2730.48,2135.84 2730.48,2161.22C2730.48,2188.95 2730.89,2209.89 2731.7,2224.05C2724.97,2222.37 2717.57,2221.53 2709.48,2221.53C2705.14,2221.53 2699.45,2222.23 2692.39,2223.64C2685.34,2225 2677.83,2225.68 2669.85,2225.68ZM2670.18,2175.22C2670.18,2182.71 2670.8,2187.92 2672.05,2190.85C2673.35,2193.78 2675.55,2195.24 2678.64,2195.24C2681.3,2195.24 2683.36,2194.37 2684.82,2192.64C2686.29,2190.9 2687.02,2188.33 2687.02,2184.91L2687.02,2154.88C2687.02,2153.9 2686.4,2153.11 2685.15,2152.52C2683.9,2151.87 2682.36,2151.54 2680.51,2151.54C2676.77,2151.54 2674.11,2153.41 2672.53,2157.16C2670.96,2160.85 2670.18,2166.87 2670.18,2175.22Z" style="fill:rgb(234,243,251);fill-rule:nonzero;"/>
            </g>
            <g transform="matrix(0.981555,-0.191177,0.191177,0.981555,-382.19,809.842)">
                <path d="M2791.59,2180.02C2791.59,2185.29 2792.19,2189.03 2793.39,2191.25C2794.63,2193.48 2796.67,2194.59 2799.49,2194.59C2802.69,2194.59 2804.94,2193.86 2806.24,2192.39C2807.6,2190.88 2808.28,2188.33 2808.28,2184.74C2808.28,2158.16 2807.9,2138.2 2807.14,2124.85L2852.63,2124.85L2852.47,2175.71L2852.63,2224.05C2845.36,2222.42 2838.82,2221.53 2833.02,2221.37C2827.27,2221.2 2822.71,2221.47 2819.35,2222.18C2815.98,2222.88 2811.53,2223.64 2806,2224.46C2800.52,2225.27 2794.96,2225.68 2789.32,2225.68C2774.02,2225.68 2763.22,2222.91 2756.93,2217.38C2750.63,2211.84 2747.49,2202.3 2747.49,2188.73C2747.49,2161.39 2747.08,2140.09 2746.26,2124.85L2791.59,2124.85L2791.59,2180.02Z" style="fill:rgb(234,243,251);fill-rule:nonzero;"/>
            </g>
            <g transform="matrix(0.902387,-0.430926,0.430926,0.902387,-661.171,1674.7)">
                <path d="M2955.09,2218.03C2948.36,2223.72 2936.7,2226.57 2920.09,2226.57C2900.24,2226.57 2886.08,2222.59 2877.61,2214.61C2869.15,2206.64 2864.92,2193.13 2864.92,2174.08C2864.92,2155.2 2869.18,2141.72 2877.7,2133.64C2886.21,2125.55 2900.24,2121.51 2919.77,2121.51C2927.58,2121.51 2934.47,2121.95 2940.44,2122.81C2946.41,2123.68 2950.5,2124.6 2952.73,2125.58L2952.73,2163.59C2949.36,2161.47 2946,2159.9 2942.64,2158.87C2939.27,2157.78 2935.1,2157.24 2930.1,2157.24C2923.76,2157.24 2919.09,2158.43 2916.11,2160.82C2913.12,2163.2 2911.63,2166.89 2911.63,2171.89C2911.63,2176.77 2913.07,2180.32 2915.94,2182.55C2918.87,2184.77 2923.48,2185.88 2929.78,2185.88C2934.44,2185.88 2938.65,2185.29 2942.39,2184.09C2946.14,2182.9 2949.88,2180.95 2953.62,2178.23L2955.09,2218.03Z" style="fill:rgb(234,243,251);fill-rule:nonzero;"/>
            </g>
            <g transform="matrix(0.829664,-0.558263,0.558263,0.829664,-707.962,2215.23)">
                <path d="M3010.91,2171.24C3010.91,2175.03 3012,2177.96 3014.17,2180.02C3016.39,2182.03 3019.65,2183.03 3023.93,2183.03C3027.14,2183.03 3030.96,2182.55 3035.41,2181.57L3035.41,2222.18C3029.66,2223.43 3023.37,2224.05 3016.53,2224.05C3004.54,2224.05 2994.96,2222.23 2987.8,2218.6C2980.7,2214.96 2975.49,2209.24 2972.18,2201.43C2968.92,2193.56 2967.27,2183.03 2967.21,2169.85C2967.21,2144.79 2966.78,2124.63 2965.91,2109.39L3012.87,2102.39C3012,2108.14 3011.57,2115.62 3011.57,2124.85L3032.56,2124.85L3032.56,2164.24C3018.13,2161.69 3010.91,2164.02 3010.91,2171.24Z" style="fill:rgb(234,243,251);fill-rule:nonzero;"/>
            </g>
            <g transform="matrix(0.765255,-0.643727,0.643727,0.765255,-682.545,2606.87)">
                <path d="M3092.86,2224.05C3092.1,2213.53 3091.72,2196.98 3091.72,2174.41L3091.72,2124.85L3048.02,2124.85C3048.78,2136.35 3049.16,2152.87 3049.16,2174.41C3049.16,2196.98 3048.78,2213.53 3048.02,2224.05L3092.86,2224.05ZM3050.06,2093.6C3046.26,2095.44 3044.36,2098.59 3044.36,2103.04C3044.36,2107.49 3046.26,2110.63 3050.06,2112.48C3053.91,2114.32 3060.45,2115.24 3069.67,2115.24C3079.16,2115.24 3085.89,2114.32 3089.85,2112.48C3093.87,2110.63 3095.88,2107.49 3095.88,2103.04C3095.88,2098.59 3093.87,2095.44 3089.85,2093.6C3085.89,2091.7 3079.16,2090.75 3069.67,2090.75C3060.45,2090.75 3053.91,2091.7 3050.06,2093.6Z" style="fill:rgb(234,243,251);fill-rule:nonzero;"/>
            </g>
            <g transform="matrix(0.83643,-0.548074,0.548074,0.83643,-684.97,2138.05)">
                <path d="M3122.65,2224.05C3114.35,2193.72 3108.22,2160.66 3104.26,2124.85L3149.59,2124.85C3150.07,2132.82 3151.02,2143.1 3152.43,2155.69C3153.14,2166.32 3153.95,2173.54 3154.88,2177.34C3155.8,2181.14 3157.1,2183.03 3158.78,2183.03C3160.52,2183.03 3161.85,2181.11 3162.77,2177.26C3163.75,2173.41 3164.59,2166.16 3165.29,2155.53C3166.7,2142.78 3167.65,2132.55 3168.14,2124.85L3210.13,2124.85C3206.12,2160.98 3200.01,2194.05 3191.82,2224.05L3122.65,2224.05Z" style="fill:rgb(234,243,251);fill-rule:nonzero;"/>
            </g>
            <g transform="matrix(0.972273,-0.233851,0.233851,0.972273,-436.023,831.321)">
                <path d="M3278.09,2226.57C3257.09,2226.57 3242.17,2222.64 3233.33,2214.77C3224.48,2206.91 3220.06,2193.67 3220.06,2175.06C3220.06,2156.29 3224.16,2142.97 3232.35,2135.1C3240.54,2127.18 3254.35,2123.22 3273.77,2123.22C3280.93,2123.22 3287.28,2123.76 3292.82,2124.85C3298.4,2125.88 3303.01,2127.32 3306.65,2129.16C3310.28,2130.95 3313.27,2133.15 3315.6,2135.75C3317.99,2138.36 3319.67,2141.12 3320.65,2144.05C3321.62,2146.98 3322.11,2150.21 3322.11,2153.74C3322.11,2157.48 3321.54,2160.87 3320.4,2163.91C3319.32,2166.89 3317.96,2169.34 3316.33,2171.24C3314.71,2173.13 3312.67,2174.79 3310.23,2176.2C3307.79,2177.61 3305.51,2178.67 3303.39,2179.37C3301.28,2180.02 3298.86,2180.57 3296.15,2181C3293.49,2181.38 3291.43,2181.6 3289.97,2181.65C3288.56,2181.71 3286.98,2181.73 3285.25,2181.73C3282.75,2181.73 3280.23,2181.65 3277.68,2181.49C3275.18,2181.27 3273.31,2181.11 3272.06,2181C3270.82,2180.84 3269.65,2180.78 3268.56,2180.84C3267.48,2180.89 3266.75,2181.14 3266.37,2181.57C3265.99,2182 3265.8,2182.71 3265.8,2183.69C3265.8,2186.07 3267.59,2188.05 3271.17,2189.63C3274.8,2191.15 3279.39,2191.91 3284.92,2191.91C3297.78,2191.91 3309.5,2188.95 3320.08,2183.03L3320.73,2219.25C3320.46,2219.47 3320.02,2219.74 3319.43,2220.06C3318.88,2220.39 3317.45,2220.99 3315.11,2221.85C3312.78,2222.67 3310.15,2223.4 3307.22,2224.05C3304.29,2224.7 3300.22,2225.27 3295.01,2225.76C3289.8,2226.3 3284.16,2226.57 3278.09,2226.57ZM3264.41,2167.09C3269.51,2167.79 3273.64,2167.49 3276.78,2166.19C3279.98,2164.89 3281.58,2162.55 3281.58,2159.19C3281.58,2157.02 3280.8,2155.26 3279.22,2153.9C3277.65,2152.55 3275.67,2151.87 3273.28,2151.87C3270.52,2151.87 3268.24,2153.17 3266.45,2155.77C3264.71,2158.38 3264.03,2162.15 3264.41,2167.09Z" style="fill:rgb(234,243,251);fill-rule:nonzero;"/>
            </g>
        </g>
        <g transform="matrix(0.468868,-0.472633,0.472633,0.468868,-854.826,1809.75)">
            <g transform="matrix(0.674384,0.616111,-0.616111,0.674384,1733.18,204.138)">
                <path d="M780.113,2256.23C797.275,2256.23 812.347,2256.72 825.329,2257.71C838.421,2258.59 851.237,2260.3 863.779,2262.83C876.431,2265.36 887.212,2268.77 896.124,2273.06C905.145,2277.35 913.451,2282.91 921.042,2289.73C928.743,2296.44 934.904,2304.52 939.524,2313.99C944.145,2323.34 947.721,2334.45 950.251,2347.32C952.891,2360.19 954.211,2374.77 954.211,2391.05C954.211,2417.01 951.516,2439.24 946.125,2457.72C940.735,2476.2 932.649,2491 921.867,2502.11C911.086,2513.22 898.214,2521.31 883.252,2526.37C868.29,2531.54 850.687,2534.07 830.445,2533.96L706.513,2533.63C708.053,2507.23 708.823,2459.92 708.823,2391.71C708.823,2374.88 707.338,2362.56 704.367,2354.75C701.507,2346.93 695.786,2343.03 687.205,2343.03C682.364,2343.03 678.239,2344.24 674.828,2346.66C671.528,2349.08 669.438,2352.05 668.557,2355.57C667.677,2358.98 667.512,2362.45 668.062,2365.97C668.612,2369.49 670.153,2372.57 672.683,2375.21C675.323,2377.85 678.569,2379.33 682.419,2379.66C680.109,2388.47 673.783,2395.67 663.442,2401.28C653.1,2406.89 641.989,2409.7 630.107,2409.7C619.766,2409.7 610.195,2407.33 601.393,2402.6C592.592,2397.87 585.331,2390.72 579.61,2381.15C574,2371.58 571.194,2360.47 571.194,2347.82C571.194,2286.76 640.834,2256.23 780.113,2256.23ZM804.866,2349.47L805.856,2429.67C805.856,2434.29 807.011,2437.86 809.322,2440.39C811.742,2442.92 815.097,2444.19 819.388,2444.19C831.05,2444.19 839.411,2439.68 844.471,2430.66C849.532,2421.53 852.063,2407.77 852.063,2389.4C852.063,2378.73 851.347,2369.82 849.917,2362.67C848.487,2355.41 846.287,2349.8 843.316,2345.84C840.346,2341.87 836.935,2339.07 833.085,2337.42C829.344,2335.77 824.779,2334.94 819.388,2334.94C809.707,2334.94 804.866,2339.78 804.866,2349.47Z" style="fill:rgb(234,243,251);fill-rule:nonzero;"/>
            </g>
            <g transform="matrix(0.876616,0.48119,-0.48119,0.876616,1215.83,-133.19)">
                <path d="M1069.73,2516.8C1068.19,2495.45 1067.42,2461.9 1067.42,2416.13L1067.42,2315.64L978.8,2315.64C980.34,2338.96 981.11,2372.46 981.11,2416.13C981.11,2461.9 980.34,2495.45 978.8,2516.8L1069.73,2516.8ZM982.925,2252.27C975.224,2256.01 971.374,2262.39 971.374,2271.41C971.374,2280.43 975.224,2286.81 982.925,2290.55C990.736,2294.29 1003.99,2296.16 1022.7,2296.16C1041.95,2296.16 1055.59,2294.29 1063.62,2290.55C1071.76,2286.81 1075.83,2280.43 1075.83,2271.41C1075.83,2262.39 1071.76,2256.01 1063.62,2252.27C1055.59,2248.42 1041.95,2246.49 1022.7,2246.49C1003.99,2246.49 990.736,2248.42 982.925,2252.27Z" style="fill:rgb(234,243,251);fill-rule:nonzero;"/>
            </g>
            <g transform="matrix(0.956812,0.290708,-0.290708,0.956812,688.225,-100.425)">
                <path d="M1272.05,2388.74C1269.18,2387.64 1265.39,2386.32 1260.66,2384.78C1256.04,2383.13 1247.95,2380.98 1236.4,2378.34C1224.85,2375.59 1215,2374.22 1206.86,2374.22C1196.41,2374.22 1191.18,2377.68 1191.18,2384.62C1191.18,2388.03 1192.89,2390.67 1196.3,2392.54C1199.71,2394.3 1204.11,2395.62 1209.5,2396.5C1215,2397.27 1221,2398.09 1227.49,2398.97C1234.09,2399.74 1240.64,2401.23 1247.13,2403.43C1253.73,2405.63 1259.72,2408.65 1265.11,2412.5C1270.62,2416.24 1275.07,2421.91 1278.48,2429.5C1281.89,2437.09 1283.6,2446.28 1283.6,2457.06C1283.6,2464.87 1282.66,2471.97 1280.79,2478.35C1279.03,2484.62 1276.61,2490.01 1273.53,2494.52C1270.56,2499.03 1266.71,2502.94 1261.98,2506.24C1257.25,2509.54 1252.3,2512.23 1247.13,2514.32C1241.96,2516.3 1236.02,2517.9 1229.3,2519.11C1222.59,2520.32 1216.05,2521.14 1209.67,2521.58C1203.29,2522.02 1196.24,2522.24 1188.54,2522.24C1174.57,2522.24 1161.7,2521.75 1149.93,2520.76C1138.16,2519.88 1128.81,2518.72 1121.87,2517.29C1115.05,2515.97 1109.17,2514.65 1104.22,2513.33C1099.38,2511.9 1096.08,2510.75 1094.32,2509.87L1091.51,2508.38L1093.16,2432.31C1096.13,2436.49 1104.11,2440.45 1117.09,2444.19C1130.07,2447.93 1143.99,2449.8 1158.84,2449.8C1167.09,2449.8 1173.97,2448.75 1179.47,2446.66C1185.08,2444.57 1187.88,2441.93 1187.88,2438.74C1187.88,2435.77 1186.51,2433.35 1183.76,2431.48C1181.12,2429.61 1177.54,2428.35 1173.03,2427.69C1168.52,2427.03 1163.4,2426.26 1157.68,2425.38C1152.07,2424.49 1146.3,2423.62 1140.36,2422.74C1134.42,2421.86 1128.59,2420.2 1122.86,2417.78C1117.25,2415.36 1112.19,2412.39 1107.68,2408.87C1103.17,2405.35 1099.54,2400.35 1096.79,2393.86C1094.15,2387.37 1092.83,2379.77 1092.83,2371.08C1092.83,2349.52 1101.03,2333.79 1117.42,2323.89C1133.92,2313.88 1160.77,2308.87 1197.95,2308.87C1226.55,2308.87 1251.47,2312.17 1272.7,2318.77L1272.05,2388.74Z" style="fill:rgb(234,243,251);fill-rule:nonzero;"/>
            </g>
            <g transform="matrix(0.987806,0.155692,-0.155692,0.987806,334.411,8.18753)">
                <path d="M1420.89,2429.67C1420.89,2422.18 1417.87,2418.44 1411.82,2418.44C1403.9,2418.44 1397.63,2420.53 1393.01,2424.72C1388.39,2428.79 1386.08,2434.34 1386.08,2441.38C1386.08,2446.55 1387.34,2450.51 1389.87,2453.26C1392.4,2456.01 1395.87,2457.39 1400.27,2457.39C1407.31,2457.39 1412.48,2454.69 1415.78,2449.3C1419.19,2443.91 1420.89,2437.37 1420.89,2429.67ZM1300.26,2457.06C1300.26,2439.46 1305.6,2425.87 1316.27,2416.3C1326.94,2406.62 1344.38,2400.35 1368.58,2397.49C1372.43,2397.05 1376.56,2396.61 1380.96,2396.17C1385.47,2395.73 1389.05,2395.4 1391.69,2395.18C1394.44,2394.85 1397.35,2394.52 1400.43,2394.19C1403.51,2393.75 1405.93,2393.42 1407.69,2393.2C1409.45,2392.87 1411.27,2392.48 1413.14,2392.04C1415.01,2391.6 1416.38,2391.11 1417.27,2390.56C1418.26,2390.01 1419.19,2389.35 1420.07,2388.58C1420.95,2387.7 1421.5,2386.76 1421.72,2385.77C1422.05,2384.67 1422.21,2383.41 1422.21,2381.97C1422.21,2377.02 1417.76,2373.83 1408.85,2372.4C1400.05,2370.97 1389.76,2370.97 1377.99,2372.4C1366.22,2373.72 1355.05,2375.43 1344.49,2377.52C1333.93,2379.61 1326.39,2381.53 1321.88,2383.3L1317.1,2319.43C1320.07,2318.66 1324.25,2317.73 1329.64,2316.63C1335.03,2315.41 1345.7,2313.82 1361.65,2311.84C1377.6,2309.86 1393.17,2308.87 1408.35,2308.87C1469.63,2308.87 1500.27,2334.34 1500.27,2385.28C1500.27,2451.28 1501.1,2495.12 1502.75,2516.8C1487.01,2513.39 1473.26,2511.68 1461.49,2511.68C1451.37,2511.68 1439.76,2513.11 1426.67,2515.97C1413.69,2518.72 1399.61,2520.1 1384.42,2520.1C1354.28,2520.1 1332.72,2514.82 1319.74,2504.26C1306.76,2493.59 1300.26,2477.85 1300.26,2457.06Z" style="fill:rgb(234,243,251);fill-rule:nonzero;"/>
            </g>
            <g transform="matrix(0.998842,-0.0481032,0.0481032,0.998842,-163.767,269.077)">
                <path d="M1620.9,2451.61C1620.9,2453.59 1622.17,2455.24 1624.7,2456.57C1627.23,2457.78 1630.36,2458.38 1634.1,2458.38C1641.69,2458.38 1647.09,2454.64 1650.28,2447.16C1653.47,2439.57 1655.06,2427.3 1655.06,2410.36C1655.06,2395.18 1653.74,2384.62 1651.1,2378.67C1648.46,2372.73 1644.01,2369.76 1637.74,2369.76C1632.45,2369.76 1628.33,2371.52 1625.36,2375.04C1622.39,2378.56 1620.9,2383.79 1620.9,2390.72L1620.9,2451.61ZM1528.99,2516.8C1530.53,2490.06 1531.3,2447.6 1531.3,2389.4C1531.3,2334.39 1530.53,2292.04 1528.99,2262.33L1619.91,2262.33C1618.7,2278.28 1617.88,2299.57 1617.44,2326.2L1619.58,2326.2C1631.02,2316.96 1646.76,2312.34 1666.78,2312.34C1694.61,2312.34 1715.18,2320.42 1728.5,2336.59C1741.92,2352.66 1748.63,2377.9 1748.63,2412.34C1748.63,2437.97 1744.94,2458.82 1737.57,2474.88C1730.2,2490.94 1719.7,2502.5 1706.05,2509.54C1692.41,2516.58 1675.19,2520.1 1654.4,2520.1C1638.23,2520.1 1622.94,2518.72 1608.53,2515.97C1594.22,2513.11 1582.67,2511.68 1573.87,2511.68C1557.59,2511.68 1542.63,2513.39 1528.99,2516.8Z" style="fill:rgb(234,243,251);fill-rule:nonzero;"/>
            </g>
            <g transform="matrix(0.9799,-0.19949,0.19949,0.9799,-497.759,557.604)">
                <path d="M1864.15,2516.8C1862.61,2495.45 1861.84,2461.9 1861.84,2416.13L1861.84,2315.64L1773.22,2315.64C1774.76,2338.96 1775.53,2372.46 1775.53,2416.13C1775.53,2461.9 1774.76,2495.45 1773.22,2516.8L1864.15,2516.8ZM1777.34,2252.27C1769.64,2256.01 1765.79,2262.39 1765.79,2271.41C1765.79,2280.43 1769.64,2286.81 1777.34,2290.55C1785.15,2294.29 1798.41,2296.16 1817.11,2296.16C1836.37,2296.16 1850.01,2294.29 1858.04,2290.55C1866.18,2286.81 1870.25,2280.43 1870.25,2271.41C1870.25,2262.39 1866.18,2256.01 1858.04,2252.27C1850.01,2248.42 1836.37,2246.49 1817.11,2246.49C1798.41,2246.49 1785.15,2248.42 1777.34,2252.27Z" style="fill:rgb(234,243,251);fill-rule:nonzero;"/>
            </g>
            <g transform="matrix(0.982451,-0.186523,0.186523,0.982451,-460.858,514.823)">
                <path d="M1984.61,2516.8C1983.07,2490.06 1982.3,2447.6 1982.3,2389.4L1981.97,2266.62L1890.38,2266.62C1891.92,2296.33 1892.69,2337.25 1892.69,2389.4C1892.69,2447.6 1891.92,2490.06 1890.38,2516.8L1984.61,2516.8Z" style="fill:rgb(234,243,251);fill-rule:nonzero;"/>
            </g>
            <g transform="matrix(0.979813,-0.199914,0.199914,0.979813,-485.079,541.568)">
                <path d="M2103.59,2516.8C2102.05,2495.45 2101.28,2461.9 2101.28,2416.13L2101.28,2315.64L2012.67,2315.64C2014.21,2338.96 2014.98,2372.46 2014.98,2416.13C2014.98,2461.9 2014.21,2495.45 2012.67,2516.8L2103.59,2516.8ZM2016.79,2252.27C2009.09,2256.01 2005.24,2262.39 2005.24,2271.41C2005.24,2280.43 2009.09,2286.81 2016.79,2290.55C2024.6,2294.29 2037.86,2296.16 2056.56,2296.16C2075.81,2296.16 2089.46,2294.29 2097.49,2290.55C2105.63,2286.81 2109.7,2280.43 2109.7,2271.41C2109.7,2262.39 2105.63,2256.01 2097.49,2252.27C2089.46,2248.42 2075.81,2246.49 2056.56,2246.49C2037.86,2246.49 2024.6,2248.42 2016.79,2252.27Z" style="fill:rgb(234,243,251);fill-rule:nonzero;"/>
            </g>
            <g transform="matrix(0.98583,-0.167746,0.167746,0.98583,-422.253,452.491)">
                <path d="M2221.09,2409.7C2221.09,2417.4 2223.29,2423.34 2227.69,2427.52C2232.2,2431.59 2238.8,2433.63 2247.49,2433.63C2253.98,2433.63 2261.74,2432.64 2270.76,2430.66L2270.76,2513C2259.1,2515.53 2246.34,2516.8 2232.48,2516.8C2208.16,2516.8 2188.74,2513.11 2174.22,2505.74C2159.81,2498.37 2149.25,2486.76 2142.54,2470.92C2135.94,2454.97 2132.58,2433.63 2132.47,2406.89C2132.47,2356.07 2131.59,2315.2 2129.83,2284.28L2225.05,2270.09C2223.29,2281.75 2222.41,2296.93 2222.41,2315.64L2264.99,2315.64L2264.99,2395.51C2235.72,2390.34 2221.09,2395.07 2221.09,2409.7Z" style="fill:rgb(234,243,251);fill-rule:nonzero;"/>
            </g>
            <g transform="matrix(0.799599,-0.166534,0.166534,0.799599,-1.62321,855.948)">
                <path d="M2387.93,2393.86C2387.93,2404.97 2389.14,2412.67 2391.56,2416.96C2394.09,2421.14 2398.49,2423.23 2404.76,2423.23C2410.7,2423.23 2414.99,2421.64 2417.63,2418.44C2420.38,2415.25 2421.76,2410.19 2421.76,2403.26C2421.76,2364.21 2420.99,2335 2419.45,2315.64L2511.69,2315.64L2511.69,2499.97C2511.69,2511.85 2509,2523.07 2503.61,2533.63C2498.22,2544.19 2490.3,2553.65 2479.85,2562.01C2469.5,2570.38 2455.86,2576.98 2438.92,2581.82C2421.98,2586.66 2402.72,2589.08 2381.16,2589.08C2353.88,2589.08 2329.01,2585.39 2306.57,2578.02L2306.57,2491.71C2320.65,2506.46 2339.91,2513.83 2364.33,2513.83C2385.34,2513.83 2402.34,2510.25 2415.32,2503.1C2428.41,2495.84 2434.96,2487.81 2434.96,2479.01C2434.96,2474.5 2432.92,2472.24 2428.85,2472.24C2426.87,2472.24 2423.85,2472.96 2419.78,2474.39C2415.71,2475.82 2411.41,2477.41 2406.91,2479.17C2402.39,2480.93 2396.18,2482.53 2388.26,2483.96C2380.45,2485.39 2372.25,2486.1 2363.67,2486.1C2341.89,2486.1 2325.55,2480.99 2314.66,2470.76C2303.77,2460.41 2298.32,2442.87 2298.32,2418.11C2298.32,2372.57 2297.55,2338.41 2296.01,2315.64L2387.93,2315.64L2387.93,2393.86Z" style="fill:rgb(234,243,251);fill-rule:nonzero;"/>
            </g>
        </g>
        <g transform="matrix(0.800701,-0.599064,0.599064,0.800701,1372.17,987.459)">
            <g transform="matrix(0.574367,0.818598,-0.818598,0.574367,1220.96,-1114.45)">
                <path d="M1674.4,608.035C1678.13,604.306 1680,600.338 1680,596.134C1680,591.861 1679.22,588.775 1677.66,586.877C1676.17,584.978 1673.69,584.028 1670.23,584.028C1666.23,584.028 1663.38,584.978 1661.69,586.877C1659.99,588.708 1659.15,591.861 1659.15,596.337C1659.15,602.915 1659.18,607.968 1659.25,611.494C1659.32,614.953 1659.55,619.7 1659.96,625.736C1660.37,631.771 1660.98,636.892 1661.79,641.096C1662.67,645.301 1663.93,650.048 1665.56,655.338C1667.18,660.627 1669.22,665.68 1671.66,670.495L1606.45,670.495C1607.4,657.338 1607.88,636.654 1607.88,608.442C1607.88,581.519 1607.4,560.869 1606.45,546.492C1614.12,548.119 1621,549.103 1627.1,549.442C1633.21,549.713 1638.5,549.51 1642.97,548.831C1647.52,548.085 1651.75,547.238 1655.69,546.288C1659.62,545.339 1664.33,544.457 1669.83,543.643C1675.32,542.762 1681.05,542.321 1687.02,542.321C1693.46,542.321 1699.16,543.033 1704.11,544.457C1709.06,545.881 1713.43,548.153 1717.23,551.273C1721.03,554.325 1723.91,558.563 1725.88,563.988C1727.91,569.346 1728.93,575.755 1728.93,583.214C1728.93,594.133 1726.45,602.746 1721.5,609.053C1716.55,615.292 1709.6,618.411 1700.65,618.411C1694.88,618.411 1689.7,617.462 1685.09,615.563C1680.47,613.596 1676.91,611.087 1674.4,608.035Z" style="fill:rgb(234,243,251);fill-rule:nonzero;"/>
            </g>
            <g transform="matrix(0.792633,0.609699,-0.609699,0.792633,735.587,-919.721)">
                <path d="M1538.09,673.648C1511.85,673.648 1493.2,668.732 1482.14,658.898C1471.09,649.065 1465.56,632.517 1465.56,609.256C1465.56,585.792 1470.68,569.143 1480.92,559.309C1491.16,549.408 1508.42,544.457 1532.7,544.457C1541.65,544.457 1549.59,545.135 1556.51,546.492C1563.49,547.78 1569.26,549.577 1573.8,551.883C1578.34,554.121 1582.07,556.868 1584.99,560.123C1587.97,563.378 1590.07,566.837 1591.3,570.499C1592.52,574.161 1593.13,578.196 1593.13,582.604C1593.13,587.284 1592.41,591.522 1590.99,595.32C1589.63,599.05 1587.94,602.101 1585.9,604.475C1583.87,606.849 1581.33,608.917 1578.27,610.68C1575.22,612.444 1572.37,613.766 1569.73,614.648C1567.08,615.461 1564.07,616.14 1560.68,616.682C1557.35,617.157 1554.78,617.428 1552.94,617.496C1551.18,617.564 1549.22,617.598 1547.05,617.598C1543.92,617.598 1540.77,617.496 1537.58,617.292C1534.47,617.021 1532.12,616.818 1530.57,616.682C1529.01,616.479 1527.55,616.411 1526.19,616.479C1524.84,616.546 1523.92,616.852 1523.44,617.394C1522.97,617.937 1522.73,618.818 1522.73,620.039C1522.73,623.023 1524.97,625.498 1529.45,627.465C1533.99,629.364 1539.72,630.313 1546.64,630.313C1562.71,630.313 1577.36,626.617 1590.58,619.225L1591.4,664.493C1591.06,664.764 1590.52,665.103 1589.77,665.51C1589.09,665.917 1587.29,666.663 1584.38,667.748C1581.46,668.765 1578.17,669.681 1574.51,670.495C1570.85,671.309 1565.76,672.021 1559.25,672.631C1552.74,673.309 1545.69,673.648 1538.09,673.648ZM1521,599.287C1527.38,600.169 1532.53,599.796 1536.47,598.168C1540.47,596.541 1542.47,593.624 1542.47,589.42C1542.47,586.707 1541.48,584.503 1539.52,582.808C1537.55,581.112 1535.08,580.264 1532.09,580.264C1528.63,580.264 1525.78,581.892 1523.55,585.147C1521.38,588.402 1520.53,593.116 1521,599.287Z" style="fill:rgb(234,243,251);fill-rule:nonzero;"/>
            </g>
            <g transform="matrix(0.805911,0.266075,-0.266075,0.805911,489.154,-408.66)">
                <path d="M1374.01,672.529C1354.61,672.529 1340.07,667.307 1330.37,656.864C1320.67,646.42 1315.82,629.499 1315.82,606.103C1315.82,584.876 1319.93,569.312 1328.13,559.411C1336.4,549.442 1349.12,544.457 1366.28,544.457C1378.69,544.457 1388.42,547.305 1395.47,553.002L1396.49,553.002C1396.29,540.049 1395.61,527.808 1394.46,516.279L1451.32,516.279C1450.3,534.997 1449.8,560.225 1449.8,591.963C1449.8,626.617 1450.3,652.795 1451.32,670.495C1442.91,668.392 1433.65,667.341 1423.55,667.341C1418.12,667.341 1411,668.223 1402.19,669.986C1393.37,671.682 1383.98,672.529 1374.01,672.529ZM1374.42,609.46C1374.42,618.818 1375.2,625.329 1376.76,628.991C1378.38,632.653 1381.13,634.484 1385,634.484C1388.32,634.484 1390.9,633.399 1392.73,631.229C1394.56,629.059 1395.47,625.837 1395.47,621.565L1395.47,584.028C1395.47,582.808 1394.69,581.824 1393.13,581.078C1391.57,580.264 1389.64,579.858 1387.34,579.858C1382.66,579.858 1379.33,582.197 1377.37,586.877C1375.4,591.488 1374.42,599.016 1374.42,609.46Z" style="fill:rgb(234,243,251);fill-rule:nonzero;"/>
            </g>
            <g transform="matrix(0.990349,0.138598,-0.138598,0.990349,159.094,-369.719)">
                <path d="M1165.07,546.492C1172.66,548.119 1179.44,549.103 1185.41,549.442C1191.45,549.713 1196.7,549.51 1201.18,548.831C1205.72,548.085 1209.96,547.238 1213.89,546.288C1217.9,545.339 1222.68,544.457 1228.24,543.643C1233.8,542.762 1239.63,542.321 1245.73,542.321C1264.79,542.321 1278.25,545.983 1286.12,553.307C1294.05,560.564 1298.02,573.042 1298.02,590.742C1298.02,636.858 1298.5,663.442 1299.44,670.495L1241.36,670.495C1242.31,663.442 1242.78,640.655 1242.78,602.135C1242.78,595.557 1242.04,590.912 1240.55,588.199C1239.05,585.419 1236.55,584.028 1233.02,584.028C1229.02,584.028 1226.17,584.978 1224.47,586.877C1222.78,588.708 1221.93,591.861 1221.93,596.337C1221.93,638.248 1222.44,662.967 1223.46,670.495L1165.07,670.495C1166.08,656.389 1166.59,635.705 1166.59,608.442C1166.59,582.536 1166.08,561.886 1165.07,546.492Z" style="fill:rgb(234,243,251);fill-rule:nonzero;"/>
            </g>
            <g transform="matrix(0.994274,0.106862,-0.106862,0.994274,126.569,-338.261)">
                <path d="M1094.67,673.648C1068.43,673.648 1049.78,668.732 1038.72,658.898C1027.67,649.065 1022.14,632.517 1022.14,609.256C1022.14,585.792 1027.26,569.143 1037.5,559.309C1047.74,549.408 1065,544.457 1089.28,544.457C1098.23,544.457 1106.17,545.135 1113.09,546.492C1120.07,547.78 1125.83,549.577 1130.38,551.883C1134.92,554.121 1138.65,556.868 1141.57,560.123C1144.55,563.378 1146.65,566.837 1147.88,570.499C1149.1,574.161 1149.71,578.196 1149.71,582.604C1149.71,587.284 1148.99,591.522 1147.57,595.32C1146.21,599.05 1144.52,602.101 1142.48,604.475C1140.45,606.849 1137.91,608.917 1134.85,610.68C1131.8,612.444 1128.95,613.766 1126.31,614.648C1123.66,615.461 1120.65,616.14 1117.26,616.682C1113.93,617.157 1111.36,617.428 1109.52,617.496C1107.76,617.564 1105.79,617.598 1103.62,617.598C1100.51,617.598 1097.35,617.496 1094.16,617.292C1091.04,617.021 1088.7,616.818 1087.14,616.682C1085.59,616.479 1084.13,616.411 1082.77,616.479C1081.41,616.546 1080.5,616.852 1080.02,617.394C1079.55,617.937 1079.31,618.818 1079.31,620.039C1079.31,623.023 1081.55,625.498 1086.03,627.465C1090.57,629.364 1096.3,630.313 1103.22,630.313C1119.29,630.313 1133.94,626.617 1147.16,619.225L1147.98,664.493C1147.64,664.764 1147.1,665.103 1146.35,665.51C1145.67,665.917 1143.87,666.663 1140.96,667.748C1138.04,668.765 1134.75,669.681 1131.09,670.495C1127.43,671.309 1122.34,672.021 1115.83,672.631C1109.32,673.309 1102.27,673.648 1094.67,673.648ZM1077.58,599.287C1083.96,600.169 1089.11,599.796 1093.05,598.168C1097.05,596.541 1099.05,593.624 1099.05,589.42C1099.05,586.707 1098.06,584.503 1096.1,582.808C1094.13,581.112 1091.65,580.264 1088.67,580.264C1085.21,580.264 1082.36,581.892 1080.13,585.147C1077.95,588.402 1077.11,593.116 1077.58,599.287Z" style="fill:rgb(234,243,251);fill-rule:nonzero;"/>
            </g>
            <g transform="matrix(0.996562,0.0828487,-0.0828487,0.996562,103.244,-313.465)">
                <path d="M940.559,652.184C935.201,652.184 931.132,653.235 928.352,655.338C925.639,657.372 924.283,659.712 924.283,662.357C924.283,664.663 925.266,666.595 927.233,668.155C929.199,669.715 931.776,670.495 934.964,670.495C938.083,670.495 941.61,669.851 945.543,668.562C949.544,667.206 953.24,665.748 956.631,664.188C960.09,662.56 964.328,661.102 969.347,659.814C974.433,658.457 979.418,657.779 984.3,657.779C995.355,657.779 1003.73,660.831 1009.43,666.934C1015.19,673.038 1018.07,680.769 1018.07,690.128C1018.07,699.012 1015.39,706.641 1010.04,713.016C1004.68,719.391 997.016,722.578 987.047,722.578C984.741,722.578 982.232,722.375 979.519,721.968C980.401,720.679 980.842,719.323 980.842,717.899C980.91,716.475 980.537,715.118 979.723,713.83C978.909,712.609 977.451,711.558 975.349,710.676C973.246,709.862 970.669,709.456 967.617,709.456C963.82,709.456 959.547,710.134 954.8,711.49C950.121,712.846 945.848,714.338 941.983,715.966C938.117,717.661 933.472,719.187 928.046,720.544C922.689,721.9 917.501,722.578 912.482,722.578C900.411,722.578 890.442,718.95 882.575,711.694C874.708,704.437 870.775,694.298 870.775,681.278C870.775,662.628 879.456,650.285 896.817,644.25C889.153,640.248 883.592,634.484 880.134,626.956C876.675,619.429 874.946,609.765 874.946,597.965C874.946,578.298 879.93,564.294 889.899,555.952C899.936,547.611 916.823,543.44 940.559,543.44C952.223,543.44 966.061,544.643 973.718,547.351C983.399,550.776 991.692,554.596 998.644,563.988C1005.6,573.381 1006.58,583.587 1006.58,598.168C1006.58,617.632 1001.53,631.5 991.421,639.774C981.384,648.047 964.43,652.184 940.559,652.184ZM928.046,595.523C928.046,602.576 928.996,607.595 930.895,610.579C932.861,613.563 936.083,615.055 940.559,615.055C945.17,615.055 948.459,613.563 950.426,610.579C952.46,607.595 953.478,602.576 953.478,595.523C953.478,589.284 952.46,584.842 950.426,582.197C948.459,579.552 945.17,578.23 940.559,578.23C936.083,578.23 932.861,579.552 930.895,582.197C928.996,584.842 928.046,589.284 928.046,595.523Z" style="fill:rgb(234,243,251);fill-rule:nonzero;"/>
            </g>
            <g transform="matrix(0.986261,-0.165192,0.165192,0.986261,-44.9369,-90.675)">
                <path d="M853.38,591.556C851.617,590.878 849.277,590.064 846.361,589.115C843.513,588.097 838.528,586.775 831.407,585.147C824.287,583.452 818.217,582.604 813.199,582.604C806.756,582.604 803.535,584.74 803.535,589.013C803.535,591.115 804.586,592.743 806.688,593.896C808.79,594.981 811.503,595.795 814.826,596.337C818.217,596.812 821.913,597.32 825.914,597.863C829.983,598.338 834.018,599.253 838.02,600.61C842.089,601.966 845.785,603.831 849.108,606.204C852.498,608.51 855.245,612.003 857.347,616.682C859.45,621.361 860.501,627.024 860.501,633.67C860.501,638.485 859.924,642.859 858.771,646.793C857.686,650.658 856.194,653.981 854.296,656.762C852.464,659.542 850.091,661.95 847.175,663.984C844.259,666.019 841.207,667.68 838.02,668.969C834.832,670.19 831.17,671.173 827.033,671.919C822.896,672.665 818.861,673.174 814.928,673.445C810.994,673.716 806.654,673.852 801.907,673.852C793.294,673.852 785.36,673.547 778.103,672.936C770.847,672.394 765.082,671.682 760.81,670.8C756.605,669.986 752.977,669.172 749.925,668.359C746.941,667.477 744.907,666.765 743.822,666.222L742.093,665.307L743.11,618.411C744.941,620.988 749.858,623.43 757.86,625.736C765.862,628.041 774.441,629.194 783.596,629.194C788.683,629.194 792.921,628.55 796.312,627.262C799.771,625.973 801.5,624.345 801.5,622.379C801.5,620.548 800.652,619.056 798.957,617.903C797.329,616.75 795.125,615.97 792.345,615.563C789.564,615.156 786.411,614.682 782.884,614.139C779.426,613.596 775.865,613.054 772.203,612.511C768.541,611.969 764.947,610.952 761.42,609.46C757.962,607.968 754.842,606.137 752.062,603.966C749.281,601.796 747.043,598.711 745.348,594.709C743.72,590.708 742.906,586.029 742.906,580.671C742.906,567.379 747.959,557.681 758.063,551.578C768.236,545.407 784.783,542.321 807.705,542.321C825.338,542.321 840.698,544.355 853.787,548.424L853.38,591.556Z" style="fill:rgb(234,243,251);fill-rule:nonzero;"/>
            </g>
            <g transform="matrix(0.986278,-0.165092,0.165092,0.986278,-51.0193,-93.2924)">
                <path d="M592.15,546.492C599.745,548.119 606.527,549.103 612.495,549.442C618.53,549.713 623.786,549.51 628.262,548.831C632.806,548.085 637.044,547.238 640.978,546.288C644.979,545.339 649.76,544.457 655.321,543.643C660.882,542.762 666.714,542.321 672.818,542.321C691.874,542.321 705.336,545.983 713.203,553.307C721.137,560.564 725.104,573.042 725.104,590.742C725.104,636.858 725.579,663.442 726.529,670.495L668.443,670.495C669.393,663.442 669.868,640.655 669.868,602.135C669.868,595.557 669.122,590.912 667.63,588.199C666.138,585.419 663.629,584.028 660.102,584.028C656.101,584.028 653.253,584.978 651.557,586.877C649.862,588.708 649.014,591.861 649.014,596.337C649.014,638.248 649.523,662.967 650.54,670.495L592.15,670.495C593.167,656.389 593.675,635.705 593.675,608.442C593.675,582.536 593.167,561.886 592.15,546.492Z" style="fill:rgb(234,243,251);fill-rule:nonzero;"/>
            </g>
            <g transform="matrix(0.978278,-0.207297,0.207297,0.978278,-70.8386,-56.6144)">
                <path d="M523.485,616.784C523.485,612.172 521.62,609.867 517.89,609.867C513.007,609.867 509.142,611.155 506.293,613.732C503.445,616.241 502.021,619.666 502.021,624.006C502.021,627.194 502.801,629.635 504.361,631.331C505.92,633.026 508.057,633.874 510.769,633.874C515.11,633.874 518.297,632.212 520.332,628.889C522.434,625.566 523.485,621.531 523.485,616.784ZM449.124,633.67C449.124,622.82 452.413,614.444 458.991,608.544C465.569,602.576 476.318,598.711 491.238,596.947C493.612,596.676 496.155,596.405 498.867,596.134C501.648,595.862 503.852,595.659 505.48,595.523C507.175,595.32 508.972,595.116 510.871,594.913C512.77,594.642 514.262,594.438 515.347,594.303C516.432,594.099 517.551,593.862 518.704,593.59C519.857,593.319 520.705,593.014 521.247,592.675C521.857,592.336 522.434,591.929 522.976,591.454C523.519,590.912 523.858,590.335 523.994,589.725C524.197,589.047 524.299,588.267 524.299,587.385C524.299,584.333 521.552,582.367 516.059,581.485C510.634,580.604 504.293,580.604 497.036,581.485C489.78,582.299 482.897,583.35 476.386,584.639C469.876,585.927 465.23,587.114 462.45,588.199L459.5,548.831C461.331,548.357 463.908,547.78 467.231,547.102C470.554,546.356 477.132,545.373 486.966,544.152C496.799,542.931 506.395,542.321 515.754,542.321C553.528,542.321 572.415,558.021 572.415,589.42C572.415,630.11 572.923,657.135 573.941,670.495C564.243,668.392 555.766,667.341 548.509,667.341C542.27,667.341 535.116,668.223 527.045,669.986C519.043,671.682 510.362,672.529 501.004,672.529C482.422,672.529 469.13,669.274 461.127,662.764C453.125,656.185 449.124,646.488 449.124,633.67Z" style="fill:rgb(234,243,251);fill-rule:nonzero;"/>
            </g>
            <g transform="matrix(0.989664,-0.143409,0.143409,0.989664,-34.9937,-91.6341)">
                <path d="M386.258,608.035C389.988,604.306 391.853,600.338 391.853,596.134C391.853,591.861 391.073,588.775 389.513,586.877C388.021,584.978 385.546,584.028 382.087,584.028C378.086,584.028 375.237,584.978 373.542,586.877C371.847,588.708 370.999,591.861 370.999,596.337C370.999,602.915 371.033,607.968 371.101,611.494C371.168,614.953 371.406,619.7 371.813,625.736C372.22,631.771 372.83,636.892 373.644,641.096C374.525,645.301 375.78,650.048 377.408,655.338C379.035,660.627 381.07,665.68 383.511,670.495L318.305,670.495C319.255,657.338 319.729,636.654 319.729,608.442C319.729,581.519 319.255,560.869 318.305,546.492C325.968,548.119 332.852,549.103 338.955,549.442C345.059,549.713 350.349,549.51 354.825,548.831C359.368,548.085 363.607,547.238 367.54,546.288C371.474,545.339 376.187,544.457 381.68,543.643C387.173,542.762 392.904,542.321 398.872,542.321C405.314,542.321 411.011,543.033 415.961,544.457C420.912,545.881 425.286,548.153 429.084,551.273C432.882,554.325 435.764,558.563 437.731,563.988C439.765,569.346 440.782,575.755 440.782,583.214C440.782,594.133 438.307,602.746 433.356,609.053C428.406,615.292 421.455,618.411 412.503,618.411C406.738,618.411 401.55,617.462 396.939,615.563C392.327,613.596 388.767,611.087 386.258,608.035Z" style="fill:rgb(234,243,251);fill-rule:nonzero;"/>
            </g>
            <g transform="matrix(0.766056,-0.156142,0.156142,0.766056,12.9945,70.021)">
                <path d="M162.767,604.475C152.798,604.475 144.253,600.915 137.132,593.794C130.012,586.605 126.451,576.772 126.451,564.294C126.451,529.368 161.106,511.905 230.415,511.905C252.455,511.905 280.599,513.363 314.846,516.279L314.846,573.652C306.437,569.312 294.705,566.803 279.65,566.125L279.65,589.827C279.65,612.613 279.955,630.686 280.565,644.046C281.175,657.406 282.261,669.681 283.82,680.871L211.901,680.871C213.46,668.46 214.545,655.168 215.156,640.994C215.766,626.821 216.071,607.493 216.071,583.011C216.003,575.416 214.715,570.261 212.206,567.549C209.764,564.768 206.204,563.378 201.525,563.378C194.743,563.378 190.131,565.718 187.69,570.397C185.791,573.924 185.723,577.416 187.486,580.875C189.046,583.994 191.555,585.69 195.014,585.961C193.59,591.386 189.691,595.828 183.316,599.287C176.941,602.746 170.091,604.475 162.767,604.475Z" style="fill:rgb(234,243,251);fill-rule:nonzero;"/>
            </g>
        </g>
        <g transform="matrix(1,0,0,1,0.80818,17.3324)">
            <g transform="matrix(0.625391,0.780311,-0.780311,0.625391,832.487,-417.688)">
                <path d="M1691.65,577.77C1691.65,579.43 1691.84,581.188 1692.24,583.044C1692.72,584.801 1693.21,586.315 1693.7,587.585C1694.19,588.756 1694.87,590.319 1695.75,592.272C1696.63,594.128 1697.26,595.495 1697.65,596.374C1707.81,619.03 1715.82,643.737 1721.68,670.495L1634.08,670.495C1633.2,662.975 1631.49,653.063 1628.95,640.758C1627.49,631.383 1625.98,624.938 1624.41,621.423C1622.85,617.907 1620.6,616.149 1617.67,616.149C1614.75,616.149 1612.4,617.956 1610.64,621.569C1608.98,625.085 1607.42,631.481 1605.96,640.758C1603.32,653.942 1601.61,663.854 1600.83,670.495L1525.24,670.495C1531.69,641.198 1540.28,615.075 1551.02,592.126C1553.86,585.973 1555.27,581.188 1555.27,577.77C1555.27,573.766 1553.86,568.395 1551.02,561.657C1541.45,539.489 1533.84,516.247 1528.17,491.93L1612.84,491.93C1613.72,499.45 1615.43,509.362 1617.97,521.667C1619.34,529.87 1620.8,535.534 1622.36,538.659C1623.92,541.784 1626.22,543.346 1629.25,543.346C1632.27,543.346 1634.67,541.784 1636.42,538.659C1638.18,535.436 1639.7,529.772 1640.97,521.667C1643.6,508.483 1645.31,498.571 1646.09,491.93L1718.75,491.93C1713.38,514.391 1706.35,536.12 1697.65,557.116C1697.36,557.702 1696.83,558.971 1696.04,560.924C1695.26,562.878 1694.68,564.342 1694.29,565.319C1693.99,566.198 1693.55,567.467 1692.97,569.128C1692.48,570.69 1692.14,572.155 1691.94,573.522C1691.75,574.889 1691.65,576.305 1691.65,577.77Z" style="fill:rgb(96,60,151);"/>
            </g>
            <g transform="matrix(0.711329,0.702859,-0.702859,0.711329,651.002,-362.774)">
                <path d="M1433.98,675.036C1396.19,675.036 1369.34,667.956 1353.42,653.796C1337.5,639.635 1329.54,615.807 1329.54,582.311C1329.54,548.522 1336.91,524.548 1351.66,510.387C1366.4,496.13 1391.26,489.001 1426.22,489.001C1439.11,489.001 1450.54,489.977 1460.5,491.93C1470.56,493.786 1478.86,496.374 1485.4,499.694C1491.94,502.917 1497.31,506.872 1501.51,511.559C1505.81,516.247 1508.84,521.227 1510.59,526.501C1512.35,531.774 1513.23,537.585 1513.23,543.932C1513.23,550.671 1512.21,556.774 1510.15,562.243C1508.2,567.614 1505.76,572.008 1502.83,575.426C1499.9,578.844 1496.24,581.823 1491.84,584.362C1487.45,586.901 1483.35,588.805 1479.54,590.075C1475.73,591.247 1471.38,592.223 1466.5,593.005C1461.72,593.688 1458.01,594.079 1455.37,594.176C1452.83,594.274 1450,594.323 1446.87,594.323C1442.38,594.323 1437.84,594.176 1433.25,593.883C1428.76,593.493 1425.39,593.2 1423.14,593.005C1420.9,592.712 1418.8,592.614 1416.84,592.712C1414.89,592.809 1413.57,593.249 1412.89,594.03C1412.21,594.811 1411.86,596.081 1411.86,597.839C1411.86,602.135 1415.09,605.7 1421.53,608.532C1428.08,611.266 1436.33,612.633 1446.29,612.633C1469.43,612.633 1490.53,607.311 1509.57,596.667L1510.74,661.852C1510.25,662.243 1509.47,662.731 1508.4,663.317C1507.42,663.903 1504.83,664.977 1500.63,666.54C1496.43,668.005 1491.7,669.323 1486.42,670.495C1481.15,671.667 1473.83,672.692 1464.45,673.571C1455.08,674.548 1444.92,675.036 1433.98,675.036ZM1409.37,567.956C1418.55,569.225 1425.98,568.688 1431.64,566.344C1437.4,564.001 1440.28,559.801 1440.28,553.747C1440.28,549.84 1438.87,546.667 1436.03,544.225C1433.2,541.784 1429.64,540.563 1425.34,540.563C1420.36,540.563 1416.26,542.907 1413.04,547.594C1409.91,552.282 1408.69,559.069 1409.37,567.956Z" style="fill:rgb(96,60,151);"/>
            </g>
            <g transform="matrix(0.72822,0.685344,-0.685344,0.72822,624.916,-368.092)">
                <path d="M1301.56,556.823C1299.02,555.846 1295.65,554.674 1291.45,553.307C1287.35,551.842 1280.17,549.938 1269.92,547.594C1259.67,545.153 1250.93,543.932 1243.7,543.932C1234.42,543.932 1229.78,547.008 1229.78,553.161C1229.78,556.188 1231.3,558.532 1234.33,560.192C1237.35,561.755 1241.26,562.926 1246.04,563.708C1250.93,564.391 1256.25,565.124 1262.01,565.905C1267.87,566.589 1273.68,567.907 1279.44,569.86C1285.3,571.813 1290.62,574.499 1295.41,577.917C1300.29,581.237 1304.25,586.266 1307.27,593.005C1310.3,599.743 1311.82,607.897 1311.82,617.467C1311.82,624.401 1310.99,630.7 1309.33,636.364C1307.76,641.93 1305.61,646.715 1302.88,650.719C1300.24,654.723 1296.83,658.19 1292.63,661.12C1288.43,664.049 1284.03,666.442 1279.44,668.298C1274.85,670.055 1269.58,671.471 1263.62,672.546C1257.66,673.62 1251.85,674.352 1246.19,674.743C1240.53,675.133 1234.28,675.329 1227.44,675.329C1215.04,675.329 1203.61,674.889 1193.16,674.01C1182.71,673.229 1174.41,672.204 1168.26,670.934C1162.21,669.762 1156.98,668.59 1152.59,667.419C1148.29,666.149 1145.36,665.124 1143.8,664.342L1141.31,663.024L1142.77,595.495C1145.41,599.206 1152.49,602.721 1164.01,606.042C1175.54,609.362 1187.89,611.022 1201.07,611.022C1208.4,611.022 1214.5,610.094 1219.38,608.239C1224.36,606.383 1226.85,604.04 1226.85,601.208C1226.85,598.571 1225.63,596.423 1223.19,594.762C1220.85,593.102 1217.67,591.979 1213.67,591.393C1209.67,590.807 1205.13,590.124 1200.05,589.342C1195.07,588.561 1189.94,587.78 1184.67,586.999C1179.39,586.217 1174.22,584.753 1169.14,582.604C1164.16,580.456 1159.67,577.819 1155.66,574.694C1151.66,571.569 1148.44,567.126 1146,561.364C1143.65,555.602 1142.48,548.864 1142.48,541.149C1142.48,522.008 1149.76,508.044 1164.31,499.255C1178.95,490.368 1202.78,485.924 1235.79,485.924C1261.18,485.924 1283.3,488.854 1302.15,494.714L1301.56,556.823Z" style="fill:rgb(96,60,151);"/>
            </g>
            <g transform="matrix(0.803232,0.595667,-0.595667,0.803232,488.24,-317.599)">
                <path d="M1049.02,580.553C1054.39,575.182 1057.08,569.469 1057.08,563.415C1057.08,557.262 1055.96,552.819 1053.71,550.085C1051.56,547.35 1048,545.983 1043.02,545.983C1037.26,545.983 1033.15,547.35 1030.71,550.085C1028.27,552.721 1027.05,557.262 1027.05,563.708C1027.05,573.18 1027.1,580.456 1027.2,585.534C1027.29,590.514 1027.63,597.35 1028.22,606.042C1028.81,614.733 1029.69,622.106 1030.86,628.161C1032.13,634.215 1033.93,641.051 1036.28,648.669C1038.62,656.286 1041.55,663.561 1045.07,670.495L951.171,670.495C952.538,651.549 953.221,621.764 953.221,581.139C953.221,542.37 952.538,512.633 951.171,491.93C962.206,494.274 972.118,495.69 980.907,496.178C989.696,496.569 997.313,496.276 1003.76,495.299C1010.3,494.225 1016.4,493.005 1022.07,491.637C1027.73,490.27 1034.52,489.001 1042.43,487.829C1050.34,486.559 1058.59,485.924 1067.19,485.924C1076.46,485.924 1084.67,486.95 1091.8,489.001C1098.92,491.051 1105.22,494.323 1110.69,498.815C1116.16,503.21 1120.31,509.313 1123.14,517.126C1126.07,524.84 1127.54,534.069 1127.54,544.811C1127.54,560.534 1123.97,572.936 1116.84,582.018C1109.71,591.003 1099.71,595.495 1086.82,595.495C1078.51,595.495 1071.04,594.128 1064.4,591.393C1057.76,588.561 1052.63,584.948 1049.02,580.553Z" style="fill:rgb(96,60,151);"/>
            </g>
            <g transform="matrix(0.840912,0.541171,-0.541171,0.840912,403.292,-306.636)">
                <path d="M852.733,675.036C814.94,675.036 788.085,667.956 772.167,653.796C756.249,639.635 748.29,615.807 748.29,582.311C748.29,548.522 755.663,524.548 770.409,510.387C785.155,496.13 810.008,489.001 844.969,489.001C857.86,489.001 869.286,489.977 879.247,491.93C889.305,493.786 897.606,496.374 904.149,499.694C910.692,502.917 916.063,506.872 920.262,511.559C924.559,516.247 927.587,521.227 929.344,526.501C931.102,531.774 931.981,537.585 931.981,543.932C931.981,550.671 930.956,556.774 928.905,562.243C926.952,567.614 924.51,572.008 921.581,575.426C918.651,578.844 914.989,581.823 910.594,584.362C906.2,586.901 902.098,588.805 898.29,590.075C894.481,591.247 890.135,592.223 885.253,593.005C880.467,593.688 876.756,594.079 874.12,594.176C871.581,594.274 868.749,594.323 865.624,594.323C861.131,594.323 856.59,594.176 852.001,593.883C847.508,593.493 844.139,593.2 841.893,593.005C839.647,592.712 837.548,592.614 835.594,592.712C833.641,592.809 832.323,593.249 831.639,594.03C830.956,594.811 830.614,596.081 830.614,597.839C830.614,602.135 833.837,605.7 840.282,608.532C846.825,611.266 855.077,612.633 865.038,612.633C888.182,612.633 909.276,607.311 928.319,596.667L929.491,661.852C929.003,662.243 928.221,662.731 927.147,663.317C926.171,663.903 923.583,664.977 919.383,666.54C915.184,668.005 910.448,669.323 905.174,670.495C899.901,671.667 892.577,672.692 883.202,673.571C873.827,674.548 863.671,675.036 852.733,675.036ZM828.124,567.956C837.303,569.225 844.725,568.688 850.389,566.344C856.151,564.001 859.032,559.801 859.032,553.747C859.032,549.84 857.616,546.667 854.784,544.225C851.952,541.784 848.387,540.563 844.09,540.563C839.11,540.563 835.008,542.907 831.786,547.594C828.661,552.282 827.44,559.069 828.124,567.956Z" style="fill:rgb(96,60,151);"/>
            </g>
            <g transform="matrix(0.796726,0.338764,-0.338764,0.796726,301.262,-126.962)">
                <path d="M685.448,575.426C685.448,582.262 687.401,587.536 691.307,591.247C695.311,594.86 701.171,596.667 708.885,596.667C714.647,596.667 721.532,595.788 729.54,594.03L729.54,667.126C719.188,669.372 707.86,670.495 695.555,670.495C673.973,670.495 656.737,667.223 643.846,660.68C631.053,654.137 621.678,643.835 615.721,629.772C609.862,615.612 606.883,596.667 606.786,572.936C606.786,527.819 606.005,491.54 604.442,464.098L688.964,451.501C687.401,461.852 686.62,475.329 686.62,491.93L724.413,491.93L724.413,562.829C698.436,558.239 685.448,562.438 685.448,575.426Z" style="fill:rgb(96,60,151);"/>
            </g>
            <g transform="matrix(0.956414,0.292014,-0.292014,0.956414,177.728,-206.812)">
                <path d="M387.499,491.93C398.436,494.274 408.202,495.69 416.796,496.178C425.487,496.569 433.055,496.276 439.501,495.299C446.044,494.225 452.147,493.005 457.811,491.637C463.573,490.27 470.458,489.001 478.465,487.829C486.473,486.559 494.872,485.924 503.661,485.924C531.102,485.924 550.487,491.198 561.815,501.745C573.241,512.194 578.954,530.163 578.954,555.651C578.954,622.057 579.637,660.339 581.005,670.495L497.362,670.495C498.729,660.339 499.413,627.526 499.413,572.057C499.413,562.585 498.339,555.895 496.19,551.989C494.042,547.985 490.428,545.983 485.35,545.983C479.589,545.983 475.487,547.35 473.046,550.085C470.604,552.721 469.383,557.262 469.383,563.708C469.383,624.059 470.116,659.655 471.581,670.495L387.499,670.495C388.964,650.182 389.696,620.397 389.696,581.139C389.696,543.835 388.964,514.098 387.499,491.93Z" style="fill:rgb(96,60,151);"/>
            </g>
            <g transform="matrix(0.710723,0.075272,-0.075272,0.710723,118.167,28.6206)">
                <path d="M195.604,575.426C189.452,575.426 183.495,574.157 177.733,571.618C171.971,569.079 166.747,565.465 162.059,560.778C157.372,556.09 153.563,549.987 150.633,542.467C147.801,534.948 146.385,526.647 146.385,517.565C146.385,505.651 149.12,495.104 154.589,485.924C160.155,476.647 167.919,469.128 177.88,463.366C187.84,457.604 199.413,452.965 212.596,449.45C225.78,445.934 240.331,443.737 256.249,442.858C272.264,441.979 288.719,442.028 305.614,443.005C322.508,443.883 339.94,445.69 357.909,448.424C356.542,471.862 355.858,508.874 355.858,559.46C355.858,614.049 356.542,656.042 357.909,685.436L268.26,685.436C269.628,658.776 270.311,616.784 270.311,559.46C270.311,541.979 269.09,530.407 266.649,524.743C264.208,519.079 259.032,516.247 251.122,516.247C243.993,516.247 238.768,518.883 235.448,524.157C232.225,529.333 231.59,534.606 233.544,539.977C235.594,545.348 239.452,548.278 245.116,548.766C243.065,556.676 237.255,563.122 227.684,568.102C218.212,572.985 207.518,575.426 195.604,575.426Z" style="fill:rgb(96,60,151);"/>
            </g>
        </g>
    </g>
</svg>
